<svg xmlns="http://www.w3.org/2000/svg" xmlns:xlink="http://www.w3.org/1999/xlink" width="500" zoomAndPan="magnify" viewBox="0 0 375 374.999991" height="500" preserveAspectRatio="xMidYMid meet" version="1.0"><defs><filter x="0%" y="0%" width="100%" height="100%" id="b98426aa45"><feColorMatrix values="0 0 0 0 1 0 0 0 0 1 0 0 0 0 1 0 0 0 1 0" color-interpolation-filters="sRGB"/></filter><g/><clipPath id="4cd55fe3b7"><path d="M 38.992188 0 L 343 0 L 343 204.234375 L 38.992188 204.234375 Z M 38.992188 0 " clip-rule="nonzero"/></clipPath><clipPath id="8ed1e4589e"><path d="M 191.035156 0 C 107.066406 0 38.992188 45.71875 38.992188 102.117188 C 38.992188 158.515625 107.066406 204.234375 191.035156 204.234375 C 275.007812 204.234375 343.078125 158.515625 343.078125 102.117188 C 343.078125 45.71875 275.007812 0 191.035156 0 Z M 191.035156 0 " clip-rule="nonzero"/></clipPath><clipPath id="308fc6ff45"><path d="M 38.992188 0.00390625 L 342.742188 0.00390625 L 342.742188 204 L 38.992188 204 Z M 38.992188 0.00390625 " clip-rule="nonzero"/></clipPath><clipPath id="219171205d"><path d="M 191.03125 0.00390625 C 107.0625 0.00390625 38.992188 45.71875 38.992188 102.117188 C 38.992188 158.515625 107.0625 204.230469 191.03125 204.230469 C 275 204.230469 343.070312 158.515625 343.070312 102.117188 C 343.070312 45.71875 275 0.00390625 191.03125 0.00390625 Z M 191.03125 0.00390625 " clip-rule="nonzero"/></clipPath><mask id="190e56873c"><g filter="url(#b98426aa45)"><rect x="-37.5" width="450" fill="#000000" y="-37.499999" height="449.999989" fill-opacity="0.26"/></g></mask><clipPath id="12f8ee5e4f"><path d="M 0.121094 0.441406 L 360 0.441406 L 360 10.519531 L 0.121094 10.519531 Z M 0.121094 0.441406 " clip-rule="nonzero"/></clipPath><clipPath id="73a52b3732"><rect x="0" width="361" y="0" height="11"/></clipPath><clipPath id="a575cc5563"><path d="M 126.394531 96.683594 L 165.535156 96.683594 L 165.535156 165.636719 L 126.394531 165.636719 Z M 126.394531 96.683594 " clip-rule="nonzero"/></clipPath><clipPath id="ed0e080ca4"><path d="M 145.964844 96.683594 L 165.535156 165.609375 L 126.394531 165.609375 Z M 145.964844 96.683594 " clip-rule="nonzero"/></clipPath><clipPath id="b585ed833a"><path d="M 126.394531 96.683594 L 165.394531 96.683594 L 165.394531 165.683594 L 126.394531 165.683594 Z M 126.394531 96.683594 " clip-rule="nonzero"/></clipPath><clipPath id="5ab2b6bdc6"><path d="M 145.964844 96.683594 L 165.53125 165.601562 L 126.394531 165.601562 Z M 145.964844 96.683594 " clip-rule="nonzero"/></clipPath><clipPath id="d149a38541"><path d="M 211.804688 96.683594 L 252.367188 96.683594 L 252.367188 165.613281 L 211.804688 165.613281 Z M 211.804688 96.683594 " clip-rule="nonzero"/></clipPath><clipPath id="0d367165e3"><path d="M 232.085938 96.683594 L 252.367188 165.609375 L 211.804688 165.609375 Z M 232.085938 96.683594 " clip-rule="nonzero"/></clipPath><clipPath id="d4fda1e7d1"><path d="M 211.804688 96.683594 L 252.304688 96.683594 L 252.304688 165.683594 L 211.804688 165.683594 Z M 211.804688 96.683594 " clip-rule="nonzero"/></clipPath><clipPath id="09c5839b45"><path d="M 232.082031 96.683594 L 252.363281 165.597656 L 211.804688 165.597656 Z M 232.082031 96.683594 " clip-rule="nonzero"/></clipPath><clipPath id="ad9042514c"><path d="M 120.84375 162.546875 L 259.363281 162.546875 L 259.363281 177.914062 L 120.84375 177.914062 Z M 120.84375 162.546875 " clip-rule="nonzero"/></clipPath><clipPath id="c65e2ced77"><path d="M 66.476562 234.859375 L 315.542969 234.859375 L 315.542969 331.324219 L 66.476562 331.324219 Z M 66.476562 234.859375 " clip-rule="nonzero"/></clipPath><clipPath id="24a42bd9b2"><path d="M 67.976562 234.859375 L 314.097656 234.859375 C 314.496094 234.859375 314.875 235.019531 315.15625 235.300781 C 315.4375 235.582031 315.597656 235.960938 315.597656 236.359375 L 315.597656 329.824219 C 315.597656 330.21875 315.4375 330.601562 315.15625 330.882812 C 314.875 331.164062 314.496094 331.324219 314.097656 331.324219 L 67.976562 331.324219 C 67.578125 331.324219 67.195312 331.164062 66.914062 330.882812 C 66.632812 330.601562 66.476562 330.21875 66.476562 329.824219 L 66.476562 236.359375 C 66.476562 235.960938 66.632812 235.582031 66.914062 235.300781 C 67.195312 235.019531 67.578125 234.859375 67.976562 234.859375 Z M 67.976562 234.859375 " clip-rule="nonzero"/></clipPath><linearGradient x1="0.00750261" gradientTransform="matrix(0.376806, 0, 0, 0.376806, 66.472186, 234.860027)" y1="128" x2="661.007473" gradientUnits="userSpaceOnUse" y2="128" id="a74706f87b"><stop stop-opacity="1" stop-color="rgb(0%, 0%, 0%)" offset="0"/><stop stop-opacity="1" stop-color="rgb(0.175476%, 0.175476%, 0.175476%)" offset="0.0078125"/><stop stop-opacity="1" stop-color="rgb(0.527954%, 0.527954%, 0.527954%)" offset="0.015625"/><stop stop-opacity="1" stop-color="rgb(0.880432%, 0.880432%, 0.880432%)" offset="0.0234375"/><stop stop-opacity="1" stop-color="rgb(1.231384%, 1.231384%, 1.231384%)" offset="0.03125"/><stop stop-opacity="1" stop-color="rgb(1.583862%, 1.583862%, 1.583862%)" offset="0.0390625"/><stop stop-opacity="1" stop-color="rgb(1.93634%, 1.93634%, 1.93634%)" offset="0.046875"/><stop stop-opacity="1" stop-color="rgb(2.288818%, 2.288818%, 2.288818%)" offset="0.0546875"/><stop stop-opacity="1" stop-color="rgb(2.641296%, 2.641296%, 2.641296%)" offset="0.0625"/><stop stop-opacity="1" stop-color="rgb(2.993774%, 2.993774%, 2.993774%)" offset="0.0703125"/><stop stop-opacity="1" stop-color="rgb(3.346252%, 3.346252%, 3.346252%)" offset="0.078125"/><stop stop-opacity="1" stop-color="rgb(3.697205%, 3.697205%, 3.697205%)" offset="0.0859375"/><stop stop-opacity="1" stop-color="rgb(4.049683%, 4.049683%, 4.049683%)" offset="0.09375"/><stop stop-opacity="1" stop-color="rgb(4.402161%, 4.402161%, 4.402161%)" offset="0.101562"/><stop stop-opacity="1" stop-color="rgb(4.754639%, 4.754639%, 4.754639%)" offset="0.109375"/><stop stop-opacity="1" stop-color="rgb(5.107117%, 5.107117%, 5.107117%)" offset="0.117188"/><stop stop-opacity="1" stop-color="rgb(5.459595%, 5.459595%, 5.459595%)" offset="0.125"/><stop stop-opacity="1" stop-color="rgb(5.812073%, 5.812073%, 5.812073%)" offset="0.132812"/><stop stop-opacity="1" stop-color="rgb(6.164551%, 6.164551%, 6.164551%)" offset="0.140625"/><stop stop-opacity="1" stop-color="rgb(6.515503%, 6.515503%, 6.515503%)" offset="0.148438"/><stop stop-opacity="1" stop-color="rgb(6.867981%, 6.867981%, 6.867981%)" offset="0.15625"/><stop stop-opacity="1" stop-color="rgb(7.220459%, 7.220459%, 7.220459%)" offset="0.164062"/><stop stop-opacity="1" stop-color="rgb(7.572937%, 7.572937%, 7.572937%)" offset="0.171875"/><stop stop-opacity="1" stop-color="rgb(7.925415%, 7.925415%, 7.925415%)" offset="0.179688"/><stop stop-opacity="1" stop-color="rgb(8.277893%, 8.277893%, 8.277893%)" offset="0.1875"/><stop stop-opacity="1" stop-color="rgb(8.630371%, 8.630371%, 8.630371%)" offset="0.195312"/><stop stop-opacity="1" stop-color="rgb(8.981323%, 8.981323%, 8.981323%)" offset="0.203125"/><stop stop-opacity="1" stop-color="rgb(9.333801%, 9.333801%, 9.333801%)" offset="0.210937"/><stop stop-opacity="1" stop-color="rgb(9.686279%, 9.686279%, 9.686279%)" offset="0.21875"/><stop stop-opacity="1" stop-color="rgb(10.038757%, 10.038757%, 10.038757%)" offset="0.226562"/><stop stop-opacity="1" stop-color="rgb(10.391235%, 10.391235%, 10.391235%)" offset="0.234375"/><stop stop-opacity="1" stop-color="rgb(10.743713%, 10.743713%, 10.743713%)" offset="0.242188"/><stop stop-opacity="1" stop-color="rgb(11.096191%, 11.096191%, 11.096191%)" offset="0.25"/><stop stop-opacity="1" stop-color="rgb(11.447144%, 11.447144%, 11.447144%)" offset="0.257812"/><stop stop-opacity="1" stop-color="rgb(11.799622%, 11.799622%, 11.799622%)" offset="0.265625"/><stop stop-opacity="1" stop-color="rgb(12.1521%, 12.1521%, 12.1521%)" offset="0.273438"/><stop stop-opacity="1" stop-color="rgb(12.504578%, 12.504578%, 12.504578%)" offset="0.28125"/><stop stop-opacity="1" stop-color="rgb(12.857056%, 12.857056%, 12.857056%)" offset="0.289063"/><stop stop-opacity="1" stop-color="rgb(13.209534%, 13.209534%, 13.209534%)" offset="0.296875"/><stop stop-opacity="1" stop-color="rgb(13.562012%, 13.562012%, 13.562012%)" offset="0.304688"/><stop stop-opacity="1" stop-color="rgb(13.912964%, 13.912964%, 13.912964%)" offset="0.3125"/><stop stop-opacity="1" stop-color="rgb(14.265442%, 14.265442%, 14.265442%)" offset="0.320313"/><stop stop-opacity="1" stop-color="rgb(14.61792%, 14.61792%, 14.61792%)" offset="0.328125"/><stop stop-opacity="1" stop-color="rgb(14.970398%, 14.970398%, 14.970398%)" offset="0.335938"/><stop stop-opacity="1" stop-color="rgb(15.322876%, 15.322876%, 15.322876%)" offset="0.34375"/><stop stop-opacity="1" stop-color="rgb(15.675354%, 15.675354%, 15.675354%)" offset="0.351563"/><stop stop-opacity="1" stop-color="rgb(16.027832%, 16.027832%, 16.027832%)" offset="0.359375"/><stop stop-opacity="1" stop-color="rgb(16.38031%, 16.38031%, 16.38031%)" offset="0.367188"/><stop stop-opacity="1" stop-color="rgb(16.731262%, 16.731262%, 16.731262%)" offset="0.375"/><stop stop-opacity="1" stop-color="rgb(17.08374%, 17.08374%, 17.08374%)" offset="0.382813"/><stop stop-opacity="1" stop-color="rgb(17.436218%, 17.436218%, 17.436218%)" offset="0.390625"/><stop stop-opacity="1" stop-color="rgb(17.788696%, 17.788696%, 17.788696%)" offset="0.398438"/><stop stop-opacity="1" stop-color="rgb(18.141174%, 18.141174%, 18.141174%)" offset="0.40625"/><stop stop-opacity="1" stop-color="rgb(18.493652%, 18.493652%, 18.493652%)" offset="0.414063"/><stop stop-opacity="1" stop-color="rgb(18.84613%, 18.84613%, 18.84613%)" offset="0.421875"/><stop stop-opacity="1" stop-color="rgb(19.197083%, 19.197083%, 19.197083%)" offset="0.429688"/><stop stop-opacity="1" stop-color="rgb(19.549561%, 19.549561%, 19.549561%)" offset="0.4375"/><stop stop-opacity="1" stop-color="rgb(19.902039%, 19.902039%, 19.902039%)" offset="0.445313"/><stop stop-opacity="1" stop-color="rgb(20.254517%, 20.254517%, 20.254517%)" offset="0.453125"/><stop stop-opacity="1" stop-color="rgb(20.606995%, 20.606995%, 20.606995%)" offset="0.460938"/><stop stop-opacity="1" stop-color="rgb(20.959473%, 20.959473%, 20.959473%)" offset="0.46875"/><stop stop-opacity="1" stop-color="rgb(21.311951%, 21.311951%, 21.311951%)" offset="0.476563"/><stop stop-opacity="1" stop-color="rgb(21.662903%, 21.662903%, 21.662903%)" offset="0.484375"/><stop stop-opacity="1" stop-color="rgb(22.015381%, 22.015381%, 22.015381%)" offset="0.492188"/><stop stop-opacity="1" stop-color="rgb(22.367859%, 22.367859%, 22.367859%)" offset="0.5"/><stop stop-opacity="1" stop-color="rgb(22.720337%, 22.720337%, 22.720337%)" offset="0.507812"/><stop stop-opacity="1" stop-color="rgb(23.072815%, 23.072815%, 23.072815%)" offset="0.515625"/><stop stop-opacity="1" stop-color="rgb(23.425293%, 23.425293%, 23.425293%)" offset="0.523438"/><stop stop-opacity="1" stop-color="rgb(23.777771%, 23.777771%, 23.777771%)" offset="0.53125"/><stop stop-opacity="1" stop-color="rgb(24.130249%, 24.130249%, 24.130249%)" offset="0.539063"/><stop stop-opacity="1" stop-color="rgb(24.481201%, 24.481201%, 24.481201%)" offset="0.546875"/><stop stop-opacity="1" stop-color="rgb(24.833679%, 24.833679%, 24.833679%)" offset="0.554688"/><stop stop-opacity="1" stop-color="rgb(25.186157%, 25.186157%, 25.186157%)" offset="0.5625"/><stop stop-opacity="1" stop-color="rgb(25.538635%, 25.538635%, 25.538635%)" offset="0.570313"/><stop stop-opacity="1" stop-color="rgb(25.891113%, 25.891113%, 25.891113%)" offset="0.578125"/><stop stop-opacity="1" stop-color="rgb(26.243591%, 26.243591%, 26.243591%)" offset="0.585938"/><stop stop-opacity="1" stop-color="rgb(26.596069%, 26.596069%, 26.596069%)" offset="0.59375"/><stop stop-opacity="1" stop-color="rgb(26.947021%, 26.947021%, 26.947021%)" offset="0.601563"/><stop stop-opacity="1" stop-color="rgb(27.2995%, 27.2995%, 27.2995%)" offset="0.609375"/><stop stop-opacity="1" stop-color="rgb(27.651978%, 27.651978%, 27.651978%)" offset="0.617188"/><stop stop-opacity="1" stop-color="rgb(28.004456%, 28.004456%, 28.004456%)" offset="0.625"/><stop stop-opacity="1" stop-color="rgb(28.356934%, 28.356934%, 28.356934%)" offset="0.632812"/><stop stop-opacity="1" stop-color="rgb(28.709412%, 28.709412%, 28.709412%)" offset="0.640625"/><stop stop-opacity="1" stop-color="rgb(29.06189%, 29.06189%, 29.06189%)" offset="0.648438"/><stop stop-opacity="1" stop-color="rgb(29.412842%, 29.412842%, 29.412842%)" offset="0.65625"/><stop stop-opacity="1" stop-color="rgb(29.76532%, 29.76532%, 29.76532%)" offset="0.664062"/><stop stop-opacity="1" stop-color="rgb(30.117798%, 30.117798%, 30.117798%)" offset="0.671875"/><stop stop-opacity="1" stop-color="rgb(30.470276%, 30.470276%, 30.470276%)" offset="0.679688"/><stop stop-opacity="1" stop-color="rgb(30.822754%, 30.822754%, 30.822754%)" offset="0.6875"/><stop stop-opacity="1" stop-color="rgb(31.175232%, 31.175232%, 31.175232%)" offset="0.695312"/><stop stop-opacity="1" stop-color="rgb(31.52771%, 31.52771%, 31.52771%)" offset="0.703125"/><stop stop-opacity="1" stop-color="rgb(31.880188%, 31.880188%, 31.880188%)" offset="0.710938"/><stop stop-opacity="1" stop-color="rgb(32.23114%, 32.23114%, 32.23114%)" offset="0.71875"/><stop stop-opacity="1" stop-color="rgb(32.583618%, 32.583618%, 32.583618%)" offset="0.726562"/><stop stop-opacity="1" stop-color="rgb(32.936096%, 32.936096%, 32.936096%)" offset="0.734375"/><stop stop-opacity="1" stop-color="rgb(33.288574%, 33.288574%, 33.288574%)" offset="0.742188"/><stop stop-opacity="1" stop-color="rgb(33.641052%, 33.641052%, 33.641052%)" offset="0.75"/><stop stop-opacity="1" stop-color="rgb(33.99353%, 33.99353%, 33.99353%)" offset="0.757812"/><stop stop-opacity="1" stop-color="rgb(34.346008%, 34.346008%, 34.346008%)" offset="0.765625"/><stop stop-opacity="1" stop-color="rgb(34.69696%, 34.69696%, 34.69696%)" offset="0.773438"/><stop stop-opacity="1" stop-color="rgb(35.049438%, 35.049438%, 35.049438%)" offset="0.78125"/><stop stop-opacity="1" stop-color="rgb(35.401917%, 35.401917%, 35.401917%)" offset="0.789062"/><stop stop-opacity="1" stop-color="rgb(35.754395%, 35.754395%, 35.754395%)" offset="0.796875"/><stop stop-opacity="1" stop-color="rgb(36.106873%, 36.106873%, 36.106873%)" offset="0.804688"/><stop stop-opacity="1" stop-color="rgb(36.459351%, 36.459351%, 36.459351%)" offset="0.8125"/><stop stop-opacity="1" stop-color="rgb(36.811829%, 36.811829%, 36.811829%)" offset="0.820312"/><stop stop-opacity="1" stop-color="rgb(37.162781%, 37.162781%, 37.162781%)" offset="0.828125"/><stop stop-opacity="1" stop-color="rgb(37.515259%, 37.515259%, 37.515259%)" offset="0.835938"/><stop stop-opacity="1" stop-color="rgb(37.867737%, 37.867737%, 37.867737%)" offset="0.84375"/><stop stop-opacity="1" stop-color="rgb(38.220215%, 38.220215%, 38.220215%)" offset="0.851562"/><stop stop-opacity="1" stop-color="rgb(38.572693%, 38.572693%, 38.572693%)" offset="0.859375"/><stop stop-opacity="1" stop-color="rgb(38.925171%, 38.925171%, 38.925171%)" offset="0.867188"/><stop stop-opacity="1" stop-color="rgb(39.277649%, 39.277649%, 39.277649%)" offset="0.875"/><stop stop-opacity="1" stop-color="rgb(39.630127%, 39.630127%, 39.630127%)" offset="0.882812"/><stop stop-opacity="1" stop-color="rgb(39.981079%, 39.981079%, 39.981079%)" offset="0.890625"/><stop stop-opacity="1" stop-color="rgb(40.333557%, 40.333557%, 40.333557%)" offset="0.898438"/><stop stop-opacity="1" stop-color="rgb(40.686035%, 40.686035%, 40.686035%)" offset="0.90625"/><stop stop-opacity="1" stop-color="rgb(41.038513%, 41.038513%, 41.038513%)" offset="0.914062"/><stop stop-opacity="1" stop-color="rgb(41.390991%, 41.390991%, 41.390991%)" offset="0.921875"/><stop stop-opacity="1" stop-color="rgb(41.743469%, 41.743469%, 41.743469%)" offset="0.929688"/><stop stop-opacity="1" stop-color="rgb(42.095947%, 42.095947%, 42.095947%)" offset="0.9375"/><stop stop-opacity="1" stop-color="rgb(42.446899%, 42.446899%, 42.446899%)" offset="0.945312"/><stop stop-opacity="1" stop-color="rgb(42.799377%, 42.799377%, 42.799377%)" offset="0.953125"/><stop stop-opacity="1" stop-color="rgb(43.151855%, 43.151855%, 43.151855%)" offset="0.960938"/><stop stop-opacity="1" stop-color="rgb(43.504333%, 43.504333%, 43.504333%)" offset="0.96875"/><stop stop-opacity="1" stop-color="rgb(43.856812%, 43.856812%, 43.856812%)" offset="0.976562"/><stop stop-opacity="1" stop-color="rgb(44.20929%, 44.20929%, 44.20929%)" offset="0.984375"/><stop stop-opacity="1" stop-color="rgb(44.561768%, 44.561768%, 44.561768%)" offset="0.992188"/><stop stop-opacity="1" stop-color="rgb(44.91272%, 44.91272%, 44.91272%)" offset="1"/></linearGradient><clipPath id="a7ba5850e6"><path d="M 243.574219 64.3125 L 309.144531 64.3125 L 309.144531 162.671875 L 243.574219 162.671875 Z M 243.574219 64.3125 " clip-rule="nonzero"/></clipPath><clipPath id="b6c61800c6"><path d="M 276.359375 162.546875 L 309.144531 64.3125 L 243.574219 64.3125 Z M 276.359375 162.546875 " clip-rule="nonzero"/></clipPath><clipPath id="43b0511067"><path d="M 159.242188 64.363281 L 224.441406 64.363281 L 224.441406 146.882812 L 159.242188 146.882812 Z M 159.242188 64.363281 " clip-rule="nonzero"/></clipPath><clipPath id="b61e6198b7"><path d="M 191.839844 146.792969 L 224.441406 64.363281 L 159.242188 64.363281 Z M 191.839844 146.792969 " clip-rule="nonzero"/></clipPath><clipPath id="028faae8b6"><path d="M 66.542969 64.3125 L 133.71875 64.3125 L 133.71875 162.714844 L 66.542969 162.714844 Z M 66.542969 64.3125 " clip-rule="nonzero"/></clipPath><clipPath id="3054e32332"><path d="M 100.128906 162.546875 L 133.71875 64.3125 L 66.542969 64.3125 Z M 100.128906 162.546875 " clip-rule="nonzero"/></clipPath><clipPath id="5bb7f63afe"><path d="M 20.542969 90.621094 L 26.382812 90.621094 L 26.382812 99.96875 L 20.542969 99.96875 Z M 20.542969 90.621094 " clip-rule="nonzero"/></clipPath><clipPath id="e70bae8961"><path d="M 21.445312 83.820312 L 25.195312 83.820312 L 25.195312 98.023438 L 21.445312 98.023438 Z M 21.445312 83.820312 " clip-rule="nonzero"/></clipPath><clipPath id="860a230356"><path d="M 20.542969 83.820312 L 26.382812 83.820312 L 26.382812 88.675781 L 20.542969 88.675781 Z M 20.542969 83.820312 " clip-rule="nonzero"/></clipPath><clipPath id="3cac43e1f4"><path d="M 24.855469 106.96875 L 33.496094 106.96875 L 33.496094 116.96875 L 24.855469 116.96875 Z M 24.855469 106.96875 " clip-rule="nonzero"/></clipPath><clipPath id="4072958c53"><path d="M 26.625 107.691406 C 31.125 113.195312 29.476562 112.410156 28.648438 111.800781 C 27.449219 110.925781 25.125 108.304688 25.125 107.605469 C 25.125 107.257812 25.425781 106.996094 25.648438 106.996094 C 26.476562 107.082031 30.675781 113.109375 30.601562 114.070312 C 30.523438 114.332031 30.300781 114.507812 30.074219 114.507812 C 29.398438 114.417969 27.300781 111.273438 26.324219 109.964844 C 25.726562 109.179688 24.898438 108.21875 24.898438 107.78125 C 24.976562 107.519531 25.199219 107.257812 25.425781 107.257812 C 26.398438 107.34375 32.101562 115.03125 31.949219 115.207031 C 31.800781 115.378906 25.273438 109.878906 25.199219 108.917969 C 25.199219 108.652344 25.425781 108.390625 25.726562 108.390625 C 26.625 108.480469 32.476562 115.992188 32.476562 115.992188 C 32.476562 115.992188 27.523438 111.273438 27.601562 110.488281 C 27.601562 110.226562 27.824219 110.050781 28.125 110.050781 C 28.875 110.050781 32.699219 113.546875 32.625 114.070312 C 32.625 114.246094 32.324219 114.417969 32.023438 114.332031 C 31.125 114.070312 27.449219 109.179688 27.375 108.21875 C 27.375 107.957031 27.601562 107.691406 27.75 107.691406 C 28.425781 107.605469 31.875 111.710938 32.023438 112.585938 C 32.101562 112.847656 31.949219 113.195312 31.726562 113.195312 C 31.5 113.285156 30.898438 112.757812 30.300781 112.234375 C 29.101562 111.1875 25.425781 107.257812 25.5 107.167969 C 25.574219 107.082031 30.449219 110.664062 30.675781 111.535156 C 30.75 111.800781 30.601562 112.148438 30.449219 112.148438 C 30 112.234375 27.074219 107.78125 27.375 107.429688 C 27.601562 106.996094 32.398438 109.613281 32.699219 110.402344 C 32.773438 110.664062 32.625 110.925781 32.398438 111.101562 C 31.949219 111.273438 30.523438 110.839844 29.773438 110.3125 C 29.023438 109.878906 27.898438 108.652344 27.976562 108.304688 C 28.199219 107.957031 31.648438 108.390625 31.875 108.828125 C 32.023438 109.089844 31.875 109.441406 31.726562 109.613281 C 31.199219 110.050781 28.648438 109.878906 27.75 109.441406 C 27.148438 109.265625 26.476562 108.566406 26.550781 108.304688 C 26.699219 107.691406 32.175781 107.257812 32.476562 107.78125 C 32.625 107.957031 32.476562 108.304688 32.324219 108.480469 C 31.648438 109.003906 26.101562 108.042969 26.101562 107.867188 C 26.101562 107.605469 32.175781 106.820312 32.25 107.167969 C 32.324219 107.519531 29.851562 108.566406 29.851562 108.828125 C 29.925781 109.179688 32.25 108.742188 32.476562 109.179688 C 32.625 109.351562 32.476562 109.789062 32.25 109.964844 C 31.949219 110.140625 30.148438 109.265625 30.074219 109.441406 C 30 109.703125 32.925781 111.535156 32.773438 111.710938 C 32.699219 111.972656 29.398438 110.75 29.398438 110.75 C 29.398438 110.664062 32.324219 110.925781 32.699219 111.449219 C 32.925781 111.710938 32.851562 112.496094 32.699219 112.585938 C 32.398438 112.757812 31.125 111.710938 31.050781 111.886719 C 30.898438 112.148438 33.523438 114.855469 33.449219 115.03125 C 33.300781 115.117188 31.800781 114.246094 31.273438 113.632812 C 30.75 113.109375 30.226562 111.625 30.300781 111.625 C 30.300781 111.625 32.25 114.15625 32.175781 114.679688 C 32.101562 114.945312 31.726562 115.117188 31.5 115.03125 C 31.050781 114.855469 30 112.324219 30.148438 111.972656 C 30.226562 111.886719 30.601562 111.800781 30.75 111.972656 C 31.125 112.410156 31.125 116.253906 31.125 116.253906 C 31.050781 116.253906 29.851562 111.1875 30.375 110.664062 C 30.824219 110.3125 33.074219 111.535156 33.074219 111.800781 C 33.074219 112.0625 31.273438 111.972656 31.273438 112.234375 C 31.199219 112.496094 32.175781 112.933594 32.175781 113.195312 C 32.175781 113.371094 31.875 113.71875 31.648438 113.71875 C 31.125 113.632812 29.023438 111.1875 29.175781 110.488281 C 29.25 109.878906 31.199219 109.703125 31.199219 109.441406 C 31.199219 109.265625 30.449219 108.917969 30.300781 109.003906 C 30.226562 109.089844 30.375 109.964844 30.375 109.964844 C 30.375 109.964844 30.148438 109.179688 30.226562 109.089844 C 30.300781 109.003906 30.824219 109.179688 30.824219 109.351562 C 30.898438 109.441406 30.523438 109.964844 30.449219 109.964844 C 30.300781 109.878906 30.148438 109.179688 30.148438 109.089844 C 30.300781 109.089844 31.351562 110.140625 31.273438 110.402344 C 31.199219 110.664062 30.074219 110.574219 30 110.925781 C 29.925781 111.363281 32.023438 112.410156 32.101562 113.023438 C 32.101562 113.285156 31.800781 113.71875 31.648438 113.71875 C 31.351562 113.71875 30.601562 111.886719 30.75 111.535156 C 30.976562 111.1875 33.074219 111.800781 33.074219 111.800781 C 33.074219 111.800781 31.273438 111.011719 30.976562 111.363281 C 30.523438 111.886719 31.726562 114.417969 31.648438 115.46875 C 31.574219 116.078125 31.125 117.039062 30.976562 116.953125 C 30.601562 116.953125 29.773438 112.234375 30.074219 112.0625 C 30.375 111.972656 32.25 114.332031 32.175781 114.679688 C 32.101562 114.855469 31.648438 115.03125 31.351562 114.855469 C 30.898438 114.59375 29.851562 112.0625 30.074219 111.886719 C 30.300781 111.625 33.226562 113.632812 33.449219 114.332031 C 33.523438 114.59375 33.375 115.03125 33.148438 115.117188 C 32.699219 115.207031 30.226562 111.886719 30.449219 111.535156 C 30.601562 111.1875 32.925781 111.800781 33 112.0625 C 33 112.234375 32.773438 112.585938 32.476562 112.585938 C 31.949219 112.671875 29.324219 110.75 29.398438 110.488281 C 29.476562 110.3125 32.925781 111.273438 32.925781 111.363281 C 32.925781 111.363281 31.199219 111.273438 30.523438 110.925781 C 30 110.488281 29.175781 109.441406 29.25 109.089844 C 29.398438 108.742188 30.300781 108.480469 30.824219 108.480469 C 31.425781 108.480469 32.699219 109.265625 32.625 109.441406 C 32.625 109.613281 29.175781 109.351562 29.101562 108.917969 C 28.949219 108.566406 29.851562 107.78125 30.375 107.519531 C 30.898438 107.257812 32.324219 107.257812 32.324219 107.257812 C 32.324219 107.257812 26.101562 107.78125 26.101562 107.867188 C 26.101562 107.957031 32.398438 107.34375 32.476562 107.78125 C 32.550781 107.957031 31.574219 108.652344 30.898438 108.828125 C 29.773438 109.089844 26.550781 108.304688 26.550781 108.304688 C 26.550781 108.304688 31.574219 108.304688 31.875 108.828125 C 32.023438 109.089844 31.875 109.527344 31.574219 109.613281 C 31.050781 109.964844 27.824219 108.742188 27.824219 108.742188 C 27.824219 108.828125 31.5 109.265625 32.023438 109.964844 C 32.324219 110.226562 32.476562 110.925781 32.324219 111.101562 C 31.949219 111.363281 27.601562 107.082031 27.375 107.429688 C 27.148438 107.691406 30.601562 112.0625 30.449219 112.148438 C 30.300781 112.324219 25.425781 107.257812 25.5 107.167969 C 25.574219 107.082031 31.050781 110.925781 31.574219 112.148438 C 31.800781 112.496094 31.726562 113.109375 31.574219 113.195312 C 31.273438 113.371094 27.375 109.003906 27.375 108.21875 C 27.375 107.957031 27.601562 107.691406 27.75 107.691406 C 28.199219 107.691406 29.175781 108.742188 29.851562 109.703125 C 30.75 110.839844 32.625 114.15625 32.398438 114.417969 C 32.175781 114.769531 27.601562 111.273438 27.601562 110.574219 C 27.601562 110.402344 27.898438 110.140625 28.125 110.140625 C 28.949219 110.226562 32.625 114.507812 32.773438 115.378906 C 32.773438 115.730469 32.625 115.992188 32.398438 115.992188 C 31.574219 116.167969 25.351562 110.050781 25.199219 108.917969 C 25.199219 108.652344 25.351562 108.390625 25.574219 108.304688 C 25.800781 108.304688 26.324219 108.917969 26.851562 109.441406 C 27.976562 110.574219 31.949219 115.117188 31.949219 115.207031 C 31.875 115.292969 26.398438 109.964844 25.425781 108.652344 C 25.125 108.21875 24.824219 107.78125 24.898438 107.605469 C 24.976562 107.429688 25.273438 107.257812 25.5 107.34375 C 26.398438 107.605469 30.523438 114.417969 30.523438 114.417969 C 30.449219 114.507812 24.976562 107.429688 25.125 107.167969 C 25.273438 106.996094 31.199219 111.800781 31.199219 112.757812 C 31.199219 113.023438 30.898438 113.285156 30.601562 113.285156 C 30 113.285156 28.273438 111.011719 27.449219 110.050781 C 26.851562 109.351562 25.949219 108.480469 25.949219 108.128906 C 26.023438 107.867188 26.625 107.691406 26.625 107.691406 " clip-rule="nonzero"/></clipPath><clipPath id="e042538177"><path d="M 26.195312 106.753906 L 31.511719 106.753906 L 31.511719 114.972656 L 26.195312 114.972656 Z M 26.195312 106.753906 " clip-rule="nonzero"/></clipPath><clipPath id="a666cf20a0"><path d="M 27.675781 111.101562 C 31.050781 113.632812 31.574219 114.855469 31.5 114.945312 C 31.273438 115.117188 27.148438 111.886719 26.476562 110.226562 C 26.023438 109.089844 26.175781 107.082031 26.625 106.820312 C 27.148438 106.46875 30 109.179688 30 109.789062 C 30 110.050781 29.550781 110.402344 29.550781 110.402344 C 29.476562 110.402344 29.925781 109.613281 29.925781 109.613281 C 29.925781 109.703125 29.773438 110.402344 29.550781 110.402344 C 29.023438 110.574219 26.25 107.957031 26.25 107.429688 C 26.324219 107.167969 26.773438 106.820312 27 106.90625 C 27.300781 107.167969 26.925781 109.089844 27.375 110.140625 C 28.050781 111.710938 31.648438 114.679688 31.5 114.945312 C 31.351562 115.117188 28.050781 113.109375 27.449219 112.324219 C 27.148438 111.972656 26.925781 111.449219 27 111.273438 C 27.074219 111.101562 27.675781 111.101562 27.675781 111.101562 " clip-rule="nonzero"/></clipPath><clipPath id="202662a0f0"><path d="M 351.546875 90.621094 L 357.484375 90.621094 L 357.484375 106.117188 L 351.546875 106.117188 Z M 351.546875 90.621094 " clip-rule="nonzero"/></clipPath><clipPath id="64d3623e31"><path d="M 346.585938 91.183594 L 354 91.183594 L 354 100.46875 L 346.585938 100.46875 Z M 346.585938 91.183594 " clip-rule="nonzero"/></clipPath><clipPath id="b46c33d9e3"><path d="M 351.148438 96.074219 C 347.773438 90.832031 354.074219 95.027344 354 95.113281 C 354 95.289062 348.601562 92.320312 348.449219 92.667969 C 348.300781 93.015625 351.449219 95.289062 352.125 96.511719 C 352.648438 97.386719 353.175781 98.78125 352.875 99.046875 C 352.425781 99.394531 346.800781 95.203125 346.648438 94.242188 C 346.574219 93.890625 346.800781 93.542969 347.023438 93.542969 C 347.550781 93.453125 349.800781 96.597656 349.726562 96.6875 C 349.726562 96.6875 348.824219 96.25 348.523438 95.726562 C 348.226562 95.203125 347.925781 93.367188 348.148438 93.28125 C 348.449219 93.015625 351.074219 96.511719 351.148438 96.425781 C 351.226562 96.335938 348.824219 93.714844 348.824219 93.015625 C 348.824219 92.753906 349.125 92.492188 349.273438 92.492188 C 349.648438 92.582031 351 95.550781 350.773438 95.726562 C 350.550781 95.988281 347.773438 93.976562 347.699219 93.367188 C 347.625 93.105469 347.925781 92.753906 348.148438 92.753906 C 348.675781 92.753906 350.773438 95.027344 350.773438 95.464844 C 350.773438 95.726562 350.398438 95.988281 350.175781 95.898438 C 349.648438 95.726562 347.625 91.792969 347.699219 91.792969 C 347.699219 91.792969 352.125 97.035156 351.75 97.734375 C 351.523438 98.257812 348.300781 97.296875 348.300781 97.210938 C 348.300781 97.125 352.199219 97.125 352.199219 97.035156 C 352.199219 96.949219 349.273438 96.511719 349.125 96.859375 C 349.125 97.035156 350.476562 97.472656 350.625 98.085938 C 350.851562 98.695312 350.398438 100.441406 350.324219 100.441406 C 350.324219 100.355469 350.550781 99.308594 350.324219 98.78125 C 350.101562 97.996094 348.300781 96.949219 348.449219 96.511719 C 348.523438 96.074219 349.875 95.898438 350.625 95.898438 C 351.375 95.988281 352.875 96.425781 352.949219 96.859375 C 352.949219 97.210938 351.523438 98.171875 350.699219 98.257812 C 349.800781 98.347656 347.851562 97.648438 347.625 97.210938 C 347.550781 96.949219 347.773438 96.597656 348 96.511719 C 348.449219 96.25 350.773438 97.820312 351 97.472656 C 351.375 96.949219 347.550781 91.882812 347.699219 91.792969 C 347.773438 91.707031 350.773438 94.765625 350.773438 95.375 C 350.699219 95.636719 350.476562 95.898438 350.175781 95.898438 C 349.726562 95.898438 348.300781 94.589844 348.074219 93.976562 C 347.925781 93.542969 347.925781 92.753906 348.074219 92.667969 C 348.449219 92.582031 350.851562 95.726562 350.851562 95.726562 C 350.851562 95.726562 349.425781 94.503906 349.273438 93.890625 C 349.050781 93.453125 349.125 92.582031 349.273438 92.492188 C 349.574219 92.40625 351.449219 96.164062 351.148438 96.425781 C 350.925781 96.6875 348.523438 95.027344 348.148438 94.328125 C 348 93.976562 348.074219 93.28125 348.148438 93.28125 C 348.300781 93.191406 349.949219 96.425781 349.726562 96.6875 C 349.5 96.859375 346.800781 94.851562 346.648438 94.242188 C 346.574219 93.976562 346.726562 93.628906 346.949219 93.542969 C 347.25 93.367188 348 93.890625 348.675781 94.328125 C 349.875 95.113281 353.25 97.734375 353.324219 98.519531 C 353.324219 98.695312 353.101562 99.046875 352.875 99.046875 C 352.199219 99.046875 348.148438 93.191406 348.449219 92.667969 C 348.75 92.144531 354 95.113281 354 95.113281 C 354 95.113281 347.925781 93.015625 347.398438 92.054688 C 347.25 91.792969 347.324219 91.359375 347.476562 91.269531 C 347.773438 91.007812 349.351562 92.054688 350.023438 92.84375 C 350.773438 93.542969 351.976562 95.289062 351.824219 95.726562 C 351.75 95.988281 351.148438 96.074219 351.148438 96.074219 " clip-rule="nonzero"/></clipPath><clipPath id="5ae256f64b"><path d="M 345.804688 92.570312 L 354.792969 92.570312 L 354.792969 98.480469 L 345.804688 98.480469 Z M 345.804688 92.570312 " clip-rule="nonzero"/></clipPath><clipPath id="98ac70cb3f"><path d="M 346.5 92.582031 C 351.300781 95.113281 345.898438 95.113281 345.898438 95.203125 C 345.898438 95.203125 348.300781 94.9375 349.050781 95.113281 C 349.574219 95.203125 350.101562 95.375 350.175781 95.636719 C 350.25 95.988281 348.75 96.859375 348.824219 97.125 C 348.976562 97.558594 352.574219 97.210938 352.574219 97.296875 C 352.574219 97.386719 348.449219 97.996094 348.375 97.648438 C 348.300781 97.386719 350.101562 95.988281 350.550781 96.164062 C 350.699219 96.25 350.925781 96.773438 350.851562 96.859375 C 350.773438 96.949219 350.324219 97.035156 350.175781 96.859375 C 349.949219 96.511719 349.949219 94.152344 350.324219 93.890625 C 350.625 93.714844 351.824219 94.414062 351.976562 94.765625 C 352.050781 95.027344 351.601562 95.289062 351.675781 95.550781 C 351.824219 96.074219 354.75 96.335938 354.75 96.773438 C 354.824219 97.296875 352.125 98.433594 352.125 98.433594 C 352.125 98.433594 354.824219 97.210938 354.75 96.773438 C 354.75 96.335938 351.675781 96.773438 351.074219 96.074219 C 350.625 95.636719 350.550781 94.242188 350.773438 93.976562 C 351 93.714844 352.425781 94.242188 352.5 94.589844 C 352.574219 94.851562 352.125 95.636719 351.824219 95.726562 C 351.449219 95.8125 350.25 95.113281 350.101562 94.675781 C 350.023438 94.414062 350.175781 93.976562 350.324219 93.890625 C 350.476562 93.804688 351.074219 94.328125 351.226562 94.675781 C 351.449219 95.113281 351.523438 96.25 351.300781 96.6875 C 351.074219 96.949219 350.476562 97.210938 350.324219 97.035156 C 350.25 96.949219 350.476562 96.164062 350.550781 96.164062 C 350.550781 96.164062 350.851562 96.6875 350.699219 96.949219 C 350.550781 97.296875 348.449219 97.820312 348.300781 97.648438 C 348.226562 97.472656 348.300781 97.035156 348.601562 96.859375 C 349.125 96.511719 352.574219 97.210938 352.574219 97.296875 C 352.574219 97.386719 349.351562 97.996094 348.75 97.558594 C 348.449219 97.386719 348.300781 96.859375 348.375 96.597656 C 348.449219 96.25 349.5 96.164062 349.5 95.988281 C 349.425781 95.550781 345.824219 94.9375 345.824219 94.675781 C 345.898438 94.328125 351.300781 94.589844 351.300781 94.414062 C 351.375 94.152344 346.648438 93.890625 346.273438 93.28125 C 346.199219 93.105469 346.5 92.582031 346.5 92.582031 " clip-rule="nonzero"/></clipPath><clipPath id="0b3caf8839"><path d="M 346.082031 106.214844 L 353.117188 106.214844 L 353.117188 112.84375 L 346.082031 112.84375 Z M 346.082031 106.214844 " clip-rule="nonzero"/></clipPath><clipPath id="ca422ec860"><path d="M 351.226562 107.691406 C 347.324219 108.390625 347.175781 107.867188 347.324219 107.691406 C 347.625 107.167969 351.601562 106.730469 352.125 107.167969 C 352.273438 107.34375 352.351562 107.691406 352.273438 107.867188 C 352.050781 108.304688 349.574219 108.304688 349.574219 108.390625 C 349.574219 108.480469 352.273438 108.304688 352.351562 108.480469 C 352.351562 108.742188 349.050781 110.3125 348.601562 110.050781 C 348.375 109.964844 348.300781 109.441406 348.449219 109.265625 C 348.601562 109.003906 349.800781 108.828125 350.023438 109.089844 C 350.175781 109.179688 350.25 109.613281 350.101562 109.789062 C 349.800781 110.3125 346.199219 111.101562 346.125 110.839844 C 345.976562 110.574219 349.574219 107.605469 349.949219 107.867188 C 350.175781 107.957031 350.023438 108.742188 349.800781 109.179688 C 349.5 109.703125 348 110.3125 348.074219 110.488281 C 348.148438 110.664062 351.75 108.828125 352.125 109.089844 C 352.351562 109.265625 352.351562 109.613281 352.273438 109.789062 C 351.976562 110.3125 349.425781 110.839844 349.425781 110.839844 C 349.425781 110.925781 351.675781 109.964844 352.050781 110.140625 C 352.273438 110.3125 352.351562 110.664062 352.273438 110.925781 C 352.050781 111.363281 349.050781 112.0625 349.050781 111.972656 C 349.050781 111.972656 350.023438 111.363281 350.175781 111.535156 C 350.324219 111.625 350.398438 112.148438 350.25 112.324219 C 349.949219 112.757812 347.625 113.023438 347.398438 112.671875 C 347.25 112.410156 347.550781 111.710938 347.851562 111.363281 C 348.449219 110.75 350.925781 109.613281 351.300781 109.878906 C 351.523438 109.964844 351.601562 110.402344 351.449219 110.664062 C 351.148438 111.273438 346.5 112.148438 346.351562 111.886719 C 346.273438 111.625 349.5 110.226562 349.5 109.613281 C 349.5 109.179688 348 108.828125 348.074219 108.566406 C 348.074219 108.304688 350.476562 108.304688 350.476562 108.390625 C 350.476562 108.480469 347.699219 109.613281 347.25 109.351562 C 347.023438 109.179688 346.949219 108.828125 347.023438 108.652344 C 347.25 108.21875 350.851562 108.128906 350.851562 108.21875 C 350.851562 108.21875 348.449219 108.917969 348.148438 108.652344 C 348 108.480469 348.074219 108.042969 348.148438 107.867188 C 348.375 107.605469 349.648438 107.691406 349.648438 107.78125 C 349.648438 107.867188 347.773438 108.566406 347.625 108.304688 C 347.476562 108.042969 347.625 107.167969 347.925781 106.996094 C 348.375 106.730469 350.398438 107.605469 350.699219 108.21875 C 350.925781 108.652344 350.398438 109.613281 350.550781 109.703125 C 350.851562 109.878906 352.199219 107.691406 352.574219 107.78125 C 352.800781 107.867188 353.023438 108.21875 352.949219 108.480469 C 352.875 108.917969 350.851562 110.226562 350.550781 109.964844 C 350.324219 109.789062 350.773438 108.828125 350.550781 108.390625 C 350.324219 107.867188 349.199219 107.34375 349.273438 107.167969 C 349.351562 106.90625 351 107.605469 351.300781 107.34375 C 351.449219 107.167969 351.375 106.46875 351.375 106.46875 C 351.300781 106.46875 351.226562 107.34375 351.148438 107.34375 C 351.148438 107.34375 351.300781 106.644531 351.148438 106.46875 C 350.925781 106.121094 349.199219 106.296875 349.199219 106.296875 C 349.199219 106.296875 349.875 106.207031 350.175781 106.382812 C 350.625 106.730469 351.300781 107.957031 351.449219 108.652344 C 351.523438 109.089844 351.523438 109.703125 351.300781 109.964844 C 351.074219 110.226562 350.398438 110.3125 350.25 110.140625 C 350.101562 110.050781 350.101562 109.527344 350.25 109.265625 C 350.550781 108.742188 353.023438 107.867188 353.101562 108.042969 C 353.175781 108.21875 351.226562 110.226562 350.625 110.3125 C 350.324219 110.402344 349.949219 110.140625 349.875 109.964844 C 349.726562 109.703125 350.25 109.089844 350.023438 108.742188 C 349.800781 108.21875 347.398438 108.042969 347.398438 107.867188 C 347.398438 107.691406 349.425781 107.34375 349.5 107.519531 C 349.574219 107.691406 348.523438 108.742188 348.300781 108.652344 C 348.226562 108.652344 348.074219 108.042969 348.148438 107.867188 C 348.375 107.519531 350.398438 107.429688 350.625 107.691406 C 350.699219 107.867188 350.625 108.304688 350.476562 108.480469 C 350.023438 108.917969 346.949219 109.003906 346.875 108.917969 C 346.875 108.828125 350.175781 107.691406 350.324219 107.957031 C 350.476562 108.128906 350.175781 108.652344 349.875 108.828125 C 349.425781 109.089844 347.925781 108.742188 347.925781 108.828125 C 347.925781 108.917969 349.574219 108.828125 349.800781 109.265625 C 349.949219 109.441406 349.875 110.050781 349.648438 110.3125 C 349.199219 111.011719 346.351562 111.710938 346.351562 111.800781 C 346.425781 111.800781 350.851562 109.527344 351.375 109.878906 C 351.601562 110.050781 351.675781 110.3125 351.523438 110.574219 C 351.300781 111.1875 348.226562 112.933594 347.699219 112.757812 C 347.476562 112.671875 347.25 112.234375 347.324219 112.0625 C 347.476562 111.710938 349.050781 111.273438 349.5 111.449219 C 349.875 111.535156 350.324219 112.234375 350.25 112.324219 C 350.175781 112.496094 348.675781 112.0625 348.675781 111.886719 C 348.675781 111.535156 352.425781 110.402344 352.425781 110.402344 C 352.425781 110.402344 350.25 111.535156 349.800781 111.273438 C 349.574219 111.1875 349.425781 110.839844 349.5 110.574219 C 349.648438 110.140625 352.425781 109.527344 352.425781 109.441406 C 352.425781 109.351562 348.449219 111.011719 348.226562 110.574219 C 348 110.226562 350.023438 107.867188 350.023438 107.867188 C 350.101562 107.867188 349.050781 110.050781 348.375 110.488281 C 347.699219 110.925781 346.125 111.011719 346.125 110.839844 C 346.050781 110.664062 349.351562 108.742188 349.875 109.003906 C 350.101562 109.179688 350.25 109.613281 350.101562 109.789062 C 350.023438 110.050781 348.675781 110.226562 348.449219 110.050781 C 348.300781 109.878906 348.300781 109.441406 348.449219 109.265625 C 348.75 108.828125 351.824219 109.089844 351.824219 108.917969 C 351.824219 108.828125 350.101562 109.003906 349.800781 108.652344 C 349.648438 108.480469 349.648438 108.128906 349.800781 107.957031 C 350.101562 107.519531 352.425781 107.691406 352.425781 107.691406 C 352.425781 107.78125 348.074219 108.917969 347.550781 108.480469 C 347.324219 108.304688 347.175781 107.957031 347.324219 107.691406 C 347.550781 107.167969 350.625 106.558594 351.074219 106.90625 C 351.300781 106.996094 351.226562 107.691406 351.226562 107.691406 " clip-rule="nonzero"/></clipPath><clipPath id="115e6cd435"><path d="M 345.90625 107.058594 L 350.492188 107.058594 L 350.492188 112.34375 L 345.90625 112.34375 Z M 345.90625 107.058594 " clip-rule="nonzero"/></clipPath><clipPath id="e751273e24"><path d="M 345.976562 109.003906 C 347.625 106.820312 349.5 107.519531 349.726562 107.957031 C 349.800781 108.128906 349.726562 108.566406 349.5 108.652344 C 349.125 109.003906 346.5 108.128906 346.5 108.21875 C 346.5 108.304688 348.976562 108.566406 349.351562 109.265625 C 349.648438 109.789062 349.273438 111.101562 348.976562 111.535156 C 348.75 111.886719 348.148438 112.234375 347.925781 112.148438 C 347.773438 112.0625 347.625 111.535156 347.699219 111.363281 C 347.851562 111.101562 348.976562 111.710938 349.425781 111.363281 C 349.875 111.101562 350.398438 109.441406 350.476562 109.441406 C 350.550781 109.527344 350.023438 111.886719 349.5 112.234375 C 349.050781 112.496094 347.773438 112.234375 347.625 111.800781 C 347.398438 111.273438 348.074219 109.613281 348.449219 109.265625 C 348.75 109.089844 349.273438 109.089844 349.273438 109.179688 C 349.273438 109.179688 348.601562 109.613281 348.226562 109.613281 C 347.699219 109.527344 346.425781 108.480469 346.5 108.21875 C 346.574219 107.867188 349.5 107.605469 349.726562 107.957031 C 349.800781 108.128906 349.726562 108.566406 349.5 108.652344 C 349.199219 108.917969 347.550781 108.828125 347.175781 108.480469 C 346.875 108.128906 347.023438 107.082031 346.949219 107.082031 C 346.875 107.082031 347.023438 108.917969 346.726562 109.351562 C 346.574219 109.613281 346.125 109.878906 345.976562 109.789062 C 345.898438 109.703125 345.976562 109.003906 345.976562 109.003906 " clip-rule="nonzero"/></clipPath><clipPath id="1bbf5ded6f"><path d="M 346.261719 91.246094 L 351.535156 91.246094 L 351.535156 99.859375 L 346.261719 99.859375 Z M 346.261719 91.246094 " clip-rule="nonzero"/></clipPath><clipPath id="d0aec116d4"><path d="M 347.101562 95.289062 C 351.074219 100.007812 346.648438 97.035156 346.726562 96.6875 C 346.800781 96.511719 348.074219 97.125 348.375 96.859375 C 348.601562 96.597656 348.226562 95.464844 348.375 95.375 C 348.523438 95.375 349.574219 96.773438 349.5 97.125 C 349.425781 97.386719 349.125 97.648438 348.898438 97.558594 C 348.449219 97.472656 347.25 95.726562 347.25 95.203125 C 347.25 94.9375 347.550781 94.589844 347.773438 94.589844 C 348.074219 94.589844 348.898438 95.726562 348.976562 96.164062 C 349.050781 96.425781 348.898438 96.859375 348.75 96.859375 C 348.449219 96.949219 346.5 93.714844 346.5 92.929688 C 346.5 92.667969 346.726562 92.40625 346.949219 92.320312 C 347.175781 92.320312 348.074219 93.015625 348.074219 93.28125 C 348.074219 93.367188 347.699219 93.714844 347.550781 93.628906 C 347.175781 93.542969 346.351562 91.445312 346.5 91.359375 C 346.574219 91.183594 347.625 91.707031 347.699219 91.96875 C 347.699219 92.230469 347.476562 92.582031 347.398438 92.582031 C 347.25 92.582031 346.800781 91.792969 346.875 91.621094 C 346.949219 91.445312 347.25 91.269531 347.550781 91.359375 C 348.148438 91.53125 349.351562 93.015625 350.023438 94.152344 C 350.773438 95.375 351.601562 98.519531 351.523438 98.609375 C 351.449219 98.609375 350.699219 96.335938 350.023438 95.289062 C 349.273438 94.152344 347.023438 92.753906 346.949219 92.054688 C 346.949219 91.707031 347.324219 91.269531 347.476562 91.269531 C 347.625 91.359375 348 92.753906 347.851562 92.929688 C 347.699219 93.105469 346.273438 92.144531 346.273438 91.882812 C 346.273438 91.707031 346.800781 91.359375 347.023438 91.445312 C 347.324219 91.53125 348.074219 93.367188 347.925781 93.542969 C 347.851562 93.714844 346.5 93.105469 346.5 92.84375 C 346.5 92.753906 346.875 92.40625 347.101562 92.40625 C 347.625 92.582031 349.574219 95.988281 349.425781 96.597656 C 349.351562 96.859375 348.898438 97.035156 348.675781 96.949219 C 348.226562 96.859375 347.25 95.550781 347.25 95.203125 C 347.324219 95.027344 347.699219 94.675781 347.925781 94.765625 C 348.375 94.851562 349.648438 97.035156 349.5 97.296875 C 349.425781 97.386719 348.675781 97.296875 348.523438 97.035156 C 348.300781 96.6875 348.226562 95.464844 348.375 95.375 C 348.449219 95.375 349.050781 95.898438 349.125 96.25 C 349.199219 96.597656 348.976562 97.558594 348.675781 97.734375 C 348.300781 97.910156 346.726562 96.859375 346.726562 96.6875 C 346.800781 96.597656 347.773438 96.511719 348.300781 96.773438 C 349.199219 97.125 351.226562 99.742188 351.148438 99.832031 C 351.074219 99.917969 348.148438 97.558594 347.398438 96.773438 C 346.949219 96.335938 346.425781 95.8125 346.5 95.550781 C 346.5 95.375 347.101562 95.289062 347.101562 95.289062 " clip-rule="nonzero"/></clipPath><clipPath id="8cd1ab3afe"><path d="M 347.453125 94.816406 L 349.164062 94.816406 L 349.164062 96.640625 L 347.453125 96.640625 Z M 347.453125 94.816406 " clip-rule="nonzero"/></clipPath><clipPath id="e32196610d"><path d="M 347.925781 94.851562 C 350.851562 97.996094 347.550781 96.074219 347.476562 95.550781 C 347.398438 95.289062 347.925781 94.851562 347.925781 94.851562 " clip-rule="nonzero"/></clipPath><clipPath id="549a7f988c"><path d="M 26.695312 90.265625 L 35.179688 90.265625 L 35.179688 98.972656 L 26.695312 98.972656 Z M 26.695312 90.265625 " clip-rule="nonzero"/></clipPath><clipPath id="704dcdba40"><path d="M 30.300781 94.851562 C 35.175781 93.191406 29.101562 95.203125 28.425781 94.765625 C 28.199219 94.589844 28.125 94.152344 28.199219 93.976562 C 28.5 93.542969 32.398438 93.890625 32.550781 94.414062 C 32.625 94.851562 30.074219 96.949219 29.625 96.773438 C 29.398438 96.773438 29.25 96.425781 29.25 96.164062 C 29.398438 95.464844 33.75 92.84375 33.75 92.753906 C 33.675781 92.582031 28.800781 96.074219 27.675781 96.164062 C 27.226562 96.164062 26.773438 95.988281 26.699219 95.8125 C 26.699219 95.289062 30.75 92.054688 31.351562 92.230469 C 31.574219 92.320312 31.800781 92.667969 31.726562 92.929688 C 31.574219 93.367188 28.273438 94.242188 28.125 93.976562 C 28.050781 93.714844 32.550781 90.046875 32.773438 90.308594 C 32.925781 90.484375 32.101562 91.96875 31.5 92.753906 C 30.675781 93.714844 28.199219 95.289062 28.273438 95.375 C 28.351562 95.550781 33.300781 92.492188 33.300781 92.492188 C 33.300781 92.582031 28.425781 95.464844 28.5 95.636719 C 28.574219 95.8125 31.5 94.152344 31.800781 94.503906 C 31.949219 94.675781 31.800781 95.375 31.574219 95.8125 C 31.125 96.425781 29.175781 97.210938 29.175781 97.386719 C 29.25 97.648438 33.074219 96.425781 33.074219 96.425781 C 33.074219 96.425781 27.148438 98.347656 27 97.996094 C 26.925781 97.734375 30.148438 95.203125 31.425781 95.027344 C 32.324219 94.851562 33.824219 95.550781 33.824219 95.8125 C 33.824219 95.988281 29.851562 96.25 29.851562 96.25 C 29.851562 96.25 33.449219 95.8125 33.449219 95.726562 C 33.449219 95.550781 29.550781 95.988281 29.324219 95.289062 C 29.023438 94.589844 31.648438 91.445312 32.101562 91.445312 C 32.25 91.445312 32.476562 91.792969 32.398438 92.054688 C 32.324219 92.929688 26.851562 96.773438 26.925781 96.949219 C 27 97.035156 31.125 92.84375 31.949219 93.28125 C 32.625 93.628906 32.773438 96.773438 32.550781 96.859375 C 32.398438 97.035156 31.949219 95.988281 31.5 95.898438 C 30.976562 95.726562 29.324219 96.335938 29.25 96.773438 C 29.175781 97.296875 31.199219 99.046875 31.5 98.957031 C 31.648438 98.871094 31.648438 98.171875 31.574219 98.171875 C 31.574219 98.171875 31.5 98.871094 31.273438 98.957031 C 30.824219 99.046875 28.726562 97.472656 28.726562 96.859375 C 28.800781 96.164062 30.824219 95.113281 31.648438 95.027344 C 32.175781 95.027344 32.773438 95.203125 33 95.550781 C 33.226562 95.898438 33.148438 97.035156 33 97.386719 C 32.851562 97.648438 32.398438 97.820312 32.175781 97.648438 C 31.800781 97.472656 31.199219 95.726562 31.273438 94.851562 C 31.273438 94.242188 32.023438 93.367188 31.949219 93.28125 C 31.875 93.191406 30.601562 95.203125 29.773438 95.8125 C 28.949219 96.425781 27.074219 97.125 26.925781 96.949219 C 26.699219 96.511719 31.875 91.269531 32.101562 91.445312 C 32.25 91.621094 29.625 95.027344 29.925781 95.550781 C 30.148438 95.988281 32.324219 94.765625 33.074219 95.027344 C 33.523438 95.203125 34.050781 95.726562 33.976562 96.074219 C 33.898438 96.511719 30.449219 97.296875 29.773438 96.859375 C 29.398438 96.6875 29.25 95.988281 29.324219 95.636719 C 29.476562 95.289062 30.148438 95.113281 30.675781 95.027344 C 31.351562 94.851562 32.476562 94.675781 33 94.9375 C 33.375 95.113281 33.824219 95.636719 33.75 95.8125 C 33.675781 96.074219 32.476562 95.636719 31.648438 95.8125 C 30.375 96.074219 27 97.820312 27 97.996094 C 27.074219 98.171875 33.074219 96.425781 33.074219 96.425781 C 33.074219 96.425781 29.398438 97.734375 29.175781 97.386719 C 29.023438 97.035156 31.574219 94.414062 31.800781 94.503906 C 31.875 94.589844 31.949219 95.027344 31.800781 95.203125 C 31.5 95.636719 28.574219 95.988281 28.5 95.636719 C 28.425781 95.289062 32.925781 92.230469 33.300781 92.492188 C 33.449219 92.667969 33.449219 93.015625 33.226562 93.28125 C 32.773438 94.066406 28.5 95.8125 28.273438 95.375 C 28.050781 95.027344 32.773438 90.308594 32.773438 90.308594 C 32.699219 90.222656 29.324219 94.414062 28.648438 94.414062 C 28.425781 94.414062 28.125 94.152344 28.125 93.976562 C 28.199219 93.542969 30.300781 92.144531 30.898438 92.230469 C 31.273438 92.230469 31.726562 92.582031 31.726562 92.929688 C 31.726562 93.628906 27.75 96.511719 27.074219 96.335938 C 26.851562 96.335938 26.699219 95.988281 26.699219 95.8125 C 26.925781 95.027344 33.300781 92.230469 33.75 92.753906 C 33.898438 92.929688 33.523438 93.714844 33.148438 94.152344 C 32.476562 95.027344 30.148438 96.949219 29.625 96.773438 C 29.398438 96.773438 29.25 96.335938 29.324219 96.164062 C 29.476562 95.550781 32.550781 94.503906 32.550781 94.414062 C 32.476562 94.242188 30.601562 95.289062 29.851562 95.113281 C 29.25 95.027344 28.199219 94.242188 28.199219 93.976562 C 28.351562 93.367188 35.101562 92.84375 35.175781 93.28125 C 35.25 93.628906 32.175781 95.113281 31.273438 95.375 C 30.824219 95.550781 30.300781 95.726562 30.226562 95.636719 C 30.074219 95.464844 30.300781 94.851562 30.300781 94.851562 " clip-rule="nonzero"/></clipPath><clipPath id="58db4f24d0"><path d="M 25.070312 91.152344 L 34.394531 91.152344 L 34.394531 97.957031 L 25.070312 97.957031 Z M 25.070312 91.152344 " clip-rule="nonzero"/></clipPath><clipPath id="d807688238"><path d="M 31.125 95.464844 C 24.976562 95.636719 27.148438 93.714844 28.273438 93.105469 C 29.324219 92.582031 31.351562 92.144531 31.800781 92.582031 C 32.101562 92.929688 32.023438 93.714844 31.800781 94.328125 C 31.351562 95.375 28.726562 97.820312 28.648438 97.734375 C 28.574219 97.648438 30.226562 94.589844 30.601562 94.675781 C 30.898438 94.675781 30.824219 95.636719 31.125 95.8125 C 31.574219 95.988281 33 94.328125 33.523438 94.503906 C 33.898438 94.589844 34.199219 95.203125 34.273438 95.636719 C 34.273438 96.164062 33.898438 97.296875 33.601562 97.558594 C 33.375 97.734375 32.925781 97.820312 32.625 97.558594 C 32.023438 97.125 30.898438 94.242188 31.050781 93.628906 C 31.125 93.367188 31.425781 93.105469 31.648438 93.191406 C 32.023438 93.28125 32.851562 95.898438 32.925781 95.8125 C 33 95.8125 32.324219 93.804688 32.324219 93.804688 C 32.324219 93.804688 32.925781 95.289062 32.773438 95.550781 C 32.699219 95.726562 32.25 95.8125 32.101562 95.636719 C 31.726562 95.289062 31.726562 91.792969 32.324219 91.269531 C 32.699219 90.921875 34.273438 91.53125 34.351562 91.882812 C 34.425781 92.320312 31.800781 93.628906 31.949219 93.976562 C 31.949219 94.242188 33.375 93.804688 33.601562 94.152344 C 33.976562 94.765625 33.148438 97.558594 32.773438 97.820312 C 32.550781 97.910156 32.101562 97.386719 32.101562 97.386719 C 32.101562 97.386719 32.625 97.910156 32.625 97.910156 C 32.625 97.910156 32.175781 97.734375 32.101562 97.472656 C 31.949219 96.859375 33.226562 94.9375 32.925781 94.414062 C 32.773438 93.976562 31.351562 94.328125 31.273438 94.066406 C 31.199219 93.628906 33.75 91.269531 34.050781 91.445312 C 34.125 91.53125 34.125 92.144531 33.976562 92.320312 C 33.675781 92.582031 32.175781 91.882812 32.101562 92.054688 C 32.023438 92.144531 32.699219 92.40625 32.851562 92.84375 C 33.074219 93.542969 32.851562 95.726562 32.625 95.8125 C 32.398438 95.898438 31.726562 94.414062 31.648438 93.804688 C 31.648438 93.542969 31.726562 93.105469 31.949219 93.015625 C 32.175781 92.84375 32.851562 93.105469 33.074219 93.542969 C 33.449219 94.066406 33.449219 96.335938 33.148438 96.597656 C 32.851562 96.773438 31.949219 96.164062 31.574219 95.726562 C 31.199219 95.203125 30.824219 93.628906 31.050781 93.367188 C 31.125 93.28125 31.726562 93.453125 31.949219 93.804688 C 32.398438 94.328125 32.699219 97.035156 33 97.035156 C 33.226562 97.035156 33.824219 95.464844 33.601562 95.203125 C 33.375 94.9375 31.351562 96.6875 30.898438 96.425781 C 30.601562 96.164062 30.675781 94.589844 30.824219 94.589844 C 30.824219 94.589844 31.125 95.027344 31.125 95.289062 C 31.050781 95.898438 28.726562 97.820312 28.648438 97.734375 C 28.574219 97.648438 32.101562 93.976562 31.800781 93.367188 C 31.574219 92.929688 29.625 93.453125 28.574219 93.890625 C 27.375 94.328125 25.050781 95.898438 25.125 96.164062 C 25.273438 96.425781 30.523438 94.242188 31.050781 94.675781 C 31.273438 94.851562 31.125 95.464844 31.125 95.464844 " clip-rule="nonzero"/></clipPath><clipPath id="a7143544ba"><path d="M 29.839844 107.839844 L 34.0625 107.839844 L 34.0625 113.417969 L 29.839844 113.417969 Z M 29.839844 107.839844 " clip-rule="nonzero"/></clipPath><clipPath id="40fb4e4afa"><path d="M 32.101562 107.867188 C 33.976562 108.917969 32.398438 108.390625 32.25 108.742188 C 32.101562 109.003906 33.226562 110.402344 33.148438 110.574219 C 33 110.75 31.425781 110.050781 31.425781 109.789062 C 31.425781 109.527344 32.25 109.089844 32.625 109.179688 C 33.074219 109.179688 33.976562 110.050781 33.898438 110.3125 C 33.824219 110.75 30.824219 110.925781 30.824219 111.101562 C 30.824219 111.273438 32.550781 111.101562 32.773438 111.363281 C 32.851562 111.535156 32.773438 112.0625 32.625 112.0625 C 32.398438 112.234375 31.351562 111.535156 31.351562 111.273438 C 31.273438 111.101562 31.574219 110.75 31.800781 110.75 C 32.101562 110.75 33.226562 113.285156 33.148438 113.371094 C 33.074219 113.457031 31.125 110.140625 30.523438 109.964844 C 30.226562 109.878906 29.851562 110.140625 29.851562 110.3125 C 29.851562 110.664062 31.949219 111.273438 32.550781 111.800781 C 32.925781 112.148438 33.300781 112.585938 33.300781 112.847656 C 33.300781 113.109375 32.925781 113.457031 32.699219 113.371094 C 32.324219 113.285156 31.199219 111.449219 31.351562 111.1875 C 31.425781 110.925781 32.398438 110.925781 32.773438 111.101562 C 33 111.273438 33.300781 111.625 33.300781 111.886719 C 33.226562 112.0625 32.925781 112.324219 32.625 112.324219 C 32.175781 112.324219 30.824219 111.363281 30.824219 110.925781 C 30.898438 110.488281 32.175781 109.789062 32.773438 109.703125 C 33.148438 109.703125 33.898438 110.226562 33.898438 110.3125 C 33.898438 110.402344 31.574219 110.140625 31.425781 109.789062 C 31.351562 109.527344 31.648438 109.089844 31.875 109.003906 C 32.175781 108.917969 33.449219 110.226562 33.375 110.3125 C 33.375 110.3125 32.101562 109.964844 31.875 109.527344 C 31.648438 109.265625 31.648438 108.566406 31.875 108.304688 C 32.175781 108.042969 34.050781 108.390625 34.050781 108.566406 C 34.050781 108.652344 32.773438 109.089844 32.324219 109.003906 C 31.949219 108.917969 31.574219 108.566406 31.574219 108.390625 C 31.574219 108.21875 32.101562 107.867188 32.101562 107.867188 " clip-rule="nonzero"/></clipPath><clipPath id="989a5aab00"><path d="M 28.175781 90.378906 L 32.992188 90.378906 L 32.992188 98.089844 L 28.175781 98.089844 Z M 28.175781 90.378906 " clip-rule="nonzero"/></clipPath><clipPath id="9ce2efe168"><path d="M 31.050781 95.027344 C 28.726562 98.085938 28.648438 96.425781 28.875 95.898438 C 29.101562 95.375 30.074219 94.675781 30.074219 94.675781 C 30.148438 94.765625 29.101562 96.511719 28.726562 96.597656 C 28.574219 96.597656 28.273438 96.25 28.199219 95.898438 C 28.199219 95.027344 31.425781 90.222656 32.175781 90.398438 C 32.699219 90.570312 33.148438 93.804688 32.925781 94.152344 C 32.773438 94.328125 32.398438 94.242188 32.25 94.066406 C 32.101562 93.890625 32.476562 92.667969 32.324219 92.582031 C 32.175781 92.492188 30.449219 95.289062 30.523438 95.8125 C 30.523438 96.074219 31.050781 96.335938 31.050781 96.335938 C 31.050781 96.335938 30.074219 95.8125 30 95.375 C 29.925781 94.589844 32.175781 91.53125 32.625 91.621094 C 32.925781 91.792969 33.074219 94.066406 32.851562 94.242188 C 32.773438 94.328125 32.398438 94.242188 32.25 93.976562 C 31.949219 93.453125 32.398438 90.398438 32.25 90.398438 C 32.175781 90.398438 32.101562 92.40625 31.574219 93.28125 C 31.050781 94.503906 29.324219 96.511719 28.726562 96.597656 C 28.5 96.597656 28.199219 96.25 28.199219 95.988281 C 28.199219 95.636719 29.851562 94.414062 30.074219 94.589844 C 30.300781 94.851562 29.175781 98.171875 29.101562 98.085938 C 28.949219 98.085938 28.875 96.773438 29.101562 96.164062 C 29.324219 95.464844 30.226562 94.328125 30.601562 94.328125 C 30.824219 94.328125 31.050781 95.027344 31.050781 95.027344 " clip-rule="nonzero"/></clipPath><clipPath id="6d449ffa6b"><path d="M 345.214844 109.40625 L 348.460938 109.40625 L 348.460938 113.65625 L 345.214844 113.65625 Z M 345.214844 109.40625 " clip-rule="nonzero"/></clipPath><clipPath id="f958b62458"><path d="M 347.625 110.3125 C 345.226562 110.664062 347.699219 109.964844 347.773438 110.226562 C 347.851562 110.402344 346.425781 111.1875 346.5 111.535156 C 346.574219 111.972656 348.226562 112.148438 348.226562 112.324219 C 348.148438 112.496094 345.898438 112.585938 345.898438 112.585938 C 345.898438 112.496094 347.925781 111.972656 348.074219 112.234375 C 348.148438 112.410156 347.398438 112.933594 347.476562 113.195312 C 347.476562 113.371094 348.148438 113.71875 348.300781 113.632812 C 348.449219 113.546875 348.375 112.757812 348.375 112.757812 C 348.375 112.757812 348.449219 113.546875 348.375 113.632812 C 348.226562 113.71875 347.773438 113.371094 347.773438 113.195312 C 347.773438 113.109375 348.375 112.757812 348.449219 112.847656 C 348.449219 112.933594 348.300781 113.632812 348.074219 113.632812 C 347.851562 113.71875 346.949219 112.585938 347.023438 112.324219 C 347.101562 112.148438 347.925781 112.0625 348.074219 112.234375 C 348.226562 112.410156 348.226562 113.023438 348.074219 113.109375 C 347.773438 113.371094 345.898438 112.847656 345.898438 112.585938 C 345.898438 112.324219 347.550781 111.363281 347.925781 111.535156 C 348.074219 111.625 348.300781 112.234375 348.226562 112.324219 C 348.074219 112.496094 345.898438 111.625 345.898438 111.273438 C 345.824219 110.925781 347.625 110.050781 347.773438 110.226562 C 347.851562 110.3125 347.773438 110.839844 347.550781 111.011719 C 347.175781 111.273438 345.300781 110.925781 345.226562 110.664062 C 345.226562 110.402344 347.101562 109.265625 347.398438 109.441406 C 347.625 109.527344 347.625 110.3125 347.625 110.3125 " clip-rule="nonzero"/></clipPath></defs><g clip-path="url(#4cd55fe3b7)"><g clip-path="url(#8ed1e4589e)"><path fill="#ffffff" d="M 38.992188 0 L 342.953125 0 L 342.953125 204.234375 L 38.992188 204.234375 Z M 38.992188 0 " fill-opacity="1" fill-rule="nonzero"/></g></g><g clip-path="url(#308fc6ff45)"><g clip-path="url(#219171205d)"><path stroke-linecap="butt" transform="matrix(0.75, 0, 0, 0.75, 38.992381, 0.00228676)" fill="none" stroke-linejoin="miter" d="M 202.718492 0.00215932 C 90.760159 0.00215932 -0.000257973 60.955284 -0.000257973 136.153201 C -0.000257973 211.351118 90.760159 272.304243 202.718492 272.304243 C 314.676826 272.304243 405.437243 211.351118 405.437243 136.153201 C 405.437243 60.955284 314.676826 0.00215932 202.718492 0.00215932 Z M 202.718492 0.00215932 " stroke="#545454" stroke-width="26" stroke-opacity="1" stroke-miterlimit="4"/></g></g><g mask="url(#190e56873c)"><g transform="matrix(1, 0, 0, 1, 9, 97)"><g clip-path="url(#73a52b3732)"><g clip-path="url(#12f8ee5e4f)"><path stroke-linecap="butt" transform="matrix(0.75, 0.000000000000000046, -0.000000000000000046, 0.75, 5.518807, 0.540863)" fill="none" stroke-linejoin="miter" d="M 0.000965791 6.4976 L 465.724955 6.4976 " stroke="#000000" stroke-width="13" stroke-opacity="1" stroke-miterlimit="4"/></g></g></g></g><g clip-path="url(#a575cc5563)"><g clip-path="url(#ed0e080ca4)"><path fill="#cb1f27" d="M 126.394531 96.683594 L 165.535156 96.683594 L 165.535156 165.636719 L 126.394531 165.636719 Z M 126.394531 96.683594 " fill-opacity="1" fill-rule="nonzero"/></g></g><g clip-path="url(#b585ed833a)"><g clip-path="url(#5ab2b6bdc6)"><path stroke-linecap="butt" transform="matrix(0.75, 0, 0, 0.75, 126.39489, 96.682633)" fill="none" stroke-linejoin="miter" d="M 26.093274 0.0012812 L 52.181817 91.891912 L -0.000478067 91.891912 Z M 26.093274 0.0012812 " stroke="#000000" stroke-width="2" stroke-opacity="1" stroke-miterlimit="4"/></g></g><g clip-path="url(#d149a38541)"><g clip-path="url(#0d367165e3)"><path fill="#cb1f27" d="M 211.804688 96.683594 L 252.367188 96.683594 L 252.367188 165.613281 L 211.804688 165.613281 Z M 211.804688 96.683594 " fill-opacity="1" fill-rule="nonzero"/></g></g><g clip-path="url(#d4fda1e7d1)"><g clip-path="url(#09c5839b45)"><path stroke-linecap="butt" transform="matrix(0.75, 0, 0, 0.75, 211.803243, 96.684699)" fill="none" stroke-linejoin="miter" d="M 27.038387 -0.001474 L 54.080055 91.883949 L 0.00192654 91.883949 Z M 27.038387 -0.001474 " stroke="#000000" stroke-width="2" stroke-opacity="1" stroke-miterlimit="4"/></g></g><g clip-path="url(#ad9042514c)"><path fill="#ffffff" d="M 120.84375 162.546875 L 259.34375 162.546875 L 259.34375 177.914062 L 120.84375 177.914062 Z M 120.84375 162.546875 " fill-opacity="1" fill-rule="nonzero"/></g><path stroke-linecap="butt" transform="matrix(0, -0.75, 0.75, 0, 163.097893, 374.994789)" fill="none" stroke-linejoin="miter" d="M -0.0017397 35.999687 L 213.248274 35.999687 " stroke="#000000" stroke-width="72" stroke-opacity="1" stroke-miterlimit="4"/><g clip-path="url(#c65e2ced77)"><g clip-path="url(#24a42bd9b2)"><path fill="url(#a74706f87b)" d="M 66.476562 234.859375 L 66.476562 331.324219 L 315.542969 331.324219 L 315.542969 234.859375 Z M 66.476562 234.859375 " fill-rule="nonzero"/></g></g><g fill="#ffffff" fill-opacity="1"><g transform="translate(77.432043, 294.860021)"><g><path d="M 1.140625 0 L 1.140625 -25.765625 L 9 -25.765625 L 11.15625 -10.046875 L 13.3125 -25.765625 L 21.234375 -25.765625 L 21.234375 0 L 16.53125 0 L 16.53125 -18.5625 L 13.5625 0 L 8.9375 0 L 5.796875 -18.5625 L 5.796875 0 Z M 1.140625 0 "/></g></g></g><g fill="#ffffff" fill-opacity="1"><g transform="translate(99.803353, 294.860021)"><g><path d="M 1.140625 0 L 1.140625 -25.765625 L 11.453125 -25.765625 L 11.453125 -20.796875 L 6.390625 -20.796875 L 6.390625 -15.78125 L 11.25 -15.78125 L 11.25 -10.921875 L 6.390625 -10.921875 L 6.390625 -5.015625 L 11.796875 -5.015625 L 11.796875 0 Z M 1.140625 0 "/></g></g></g><g fill="#ffffff" fill-opacity="1"><g transform="translate(112.158554, 294.860021)"><g><path d="M 3.359375 0 L 3.359375 -20.8125 L 0.296875 -20.8125 L 0.296875 -25.765625 L 11.578125 -25.765625 L 11.578125 -20.8125 L 8.515625 -20.8125 L 8.515625 0 Z M 3.359375 0 "/></g></g></g><g fill="#ffffff" fill-opacity="1"><g transform="translate(124.033939, 294.860021)"><g><path d="M 1.140625 -25.765625 L 9.0625 -25.765625 C 10.320312 -25.765625 11.296875 -25.476562 11.984375 -24.90625 C 12.671875 -24.34375 13.132812 -23.546875 13.375 -22.515625 C 13.613281 -21.484375 13.734375 -20.164062 13.734375 -18.5625 C 13.734375 -17.101562 13.539062 -15.960938 13.15625 -15.140625 C 12.78125 -14.328125 12.125 -13.757812 11.1875 -13.4375 C 11.96875 -13.28125 12.53125 -12.890625 12.875 -12.265625 C 13.226562 -11.648438 13.40625 -10.8125 13.40625 -9.75 L 13.34375 0 L 8.3125 0 L 8.3125 -10.078125 C 8.3125 -10.796875 8.171875 -11.253906 7.890625 -11.453125 C 7.609375 -11.660156 7.097656 -11.765625 6.359375 -11.765625 L 6.359375 0 L 1.140625 0 Z M 7.625 -16.234375 C 8.34375 -16.234375 8.703125 -17.007812 8.703125 -18.5625 C 8.703125 -19.25 8.671875 -19.757812 8.609375 -20.09375 C 8.546875 -20.4375 8.4375 -20.671875 8.28125 -20.796875 C 8.125 -20.929688 7.894531 -21 7.59375 -21 L 6.390625 -21 L 6.390625 -16.234375 Z M 7.625 -16.234375 "/></g></g></g><g fill="#ffffff" fill-opacity="1"><g transform="translate(138.338377, 294.860021)"><g><path d="M 7.296875 0.234375 C 5.210938 0.234375 3.628906 -0.394531 2.546875 -1.65625 C 1.472656 -2.925781 0.9375 -4.710938 0.9375 -7.015625 L 0.9375 -19.296875 C 0.9375 -21.515625 1.472656 -23.1875 2.546875 -24.3125 C 3.628906 -25.445312 5.210938 -26.015625 7.296875 -26.015625 C 9.367188 -26.015625 10.945312 -25.445312 12.03125 -24.3125 C 13.113281 -23.1875 13.65625 -21.515625 13.65625 -19.296875 L 13.65625 -7.015625 C 13.65625 -4.703125 13.113281 -2.914062 12.03125 -1.65625 C 10.945312 -0.394531 9.367188 0.234375 7.296875 0.234375 Z M 7.296875 -4.5 C 7.753906 -4.5 8.0625 -4.695312 8.21875 -5.09375 C 8.375 -5.5 8.453125 -6.0625 8.453125 -6.78125 L 8.453125 -19.375 C 8.453125 -19.9375 8.378906 -20.390625 8.234375 -20.734375 C 8.085938 -21.085938 7.78125 -21.265625 7.3125 -21.265625 C 6.457031 -21.265625 6.03125 -20.613281 6.03125 -19.3125 L 6.03125 -6.75 C 6.03125 -6.007812 6.117188 -5.445312 6.296875 -5.0625 C 6.472656 -4.6875 6.804688 -4.5 7.296875 -4.5 Z M 7.296875 -4.5 "/></g></g></g><g fill="#ffffff" fill-opacity="1"><g transform="translate(152.912713, 294.860021)"><g><path d="M 1.140625 -25.765625 L 8.25 -25.765625 C 10.09375 -25.765625 11.472656 -25.253906 12.390625 -24.234375 C 13.304688 -23.210938 13.773438 -21.703125 13.796875 -19.703125 L 13.859375 -7.65625 C 13.878906 -5.113281 13.4375 -3.203125 12.53125 -1.921875 C 11.632812 -0.640625 10.144531 0 8.0625 0 L 1.140625 0 Z M 7.234375 -4.5625 C 8.171875 -4.5625 8.640625 -5.019531 8.640625 -5.9375 L 8.640625 -19.234375 C 8.640625 -19.804688 8.59375 -20.238281 8.5 -20.53125 C 8.414062 -20.820312 8.253906 -21.015625 8.015625 -21.109375 C 7.773438 -21.210938 7.40625 -21.265625 6.90625 -21.265625 L 6.328125 -21.265625 L 6.328125 -4.5625 Z M 7.234375 -4.5625 "/></g></g></g><g fill="#ffffff" fill-opacity="1"><g transform="translate(167.696968, 294.860021)"><g><path d="M 1.140625 0 L 1.140625 -25.765625 L 6.296875 -25.765625 L 6.296875 -4.375 L 11.609375 -4.375 L 11.609375 0 Z M 1.140625 0 "/></g></g></g><g fill="#ffffff" fill-opacity="1"><g transform="translate(179.602336, 294.860021)"><g><path d="M 1.140625 0 L 1.140625 -25.765625 L 11.453125 -25.765625 L 11.453125 -20.796875 L 6.390625 -20.796875 L 6.390625 -15.78125 L 11.25 -15.78125 L 11.25 -10.921875 L 6.390625 -10.921875 L 6.390625 -5.015625 L 11.796875 -5.015625 L 11.796875 0 Z M 1.140625 0 "/></g></g></g><g fill="#ffffff" fill-opacity="1"><g transform="translate(191.957537, 294.860021)"><g/></g></g><g fill="#ffffff" fill-opacity="1"><g transform="translate(198.974813, 294.860021)"><g><path d="M 7.265625 0.234375 C 4.921875 0.234375 3.226562 -0.34375 2.1875 -1.5 C 1.144531 -2.65625 0.625 -4.523438 0.625 -7.109375 L 0.625 -9.625 L 5.703125 -9.625 L 5.703125 -6.421875 C 5.703125 -5.140625 6.113281 -4.5 6.9375 -4.5 C 7.394531 -4.5 7.710938 -4.632812 7.890625 -4.90625 C 8.066406 -5.175781 8.15625 -5.628906 8.15625 -6.265625 C 8.15625 -7.109375 8.054688 -7.804688 7.859375 -8.359375 C 7.660156 -8.910156 7.40625 -9.367188 7.09375 -9.734375 C 6.78125 -10.109375 6.226562 -10.679688 5.4375 -11.453125 L 3.203125 -13.6875 C 1.484375 -15.363281 0.625 -17.222656 0.625 -19.265625 C 0.625 -21.460938 1.128906 -23.132812 2.140625 -24.28125 C 3.148438 -25.4375 4.625 -26.015625 6.5625 -26.015625 C 8.882812 -26.015625 10.554688 -25.394531 11.578125 -24.15625 C 12.597656 -22.925781 13.109375 -21.003906 13.109375 -18.390625 L 7.859375 -18.390625 L 7.828125 -20.15625 C 7.828125 -20.5 7.734375 -20.769531 7.546875 -20.96875 C 7.359375 -21.164062 7.09375 -21.265625 6.75 -21.265625 C 6.351562 -21.265625 6.050781 -21.15625 5.84375 -20.9375 C 5.644531 -20.71875 5.546875 -20.421875 5.546875 -20.046875 C 5.546875 -19.203125 6.023438 -18.332031 6.984375 -17.4375 L 9.984375 -14.546875 C 10.691406 -13.867188 11.273438 -13.222656 11.734375 -12.609375 C 12.191406 -12.003906 12.5625 -11.285156 12.84375 -10.453125 C 13.125 -9.617188 13.265625 -8.632812 13.265625 -7.5 C 13.265625 -4.957031 12.796875 -3.03125 11.859375 -1.71875 C 10.929688 -0.414062 9.398438 0.234375 7.265625 0.234375 Z M 7.265625 0.234375 "/></g></g></g><g fill="#ffffff" fill-opacity="1"><g transform="translate(212.799435, 294.860021)"><g><path d="M 0.453125 0 L 2.9375 -25.765625 L 11.671875 -25.765625 L 14.125 0 L 9.234375 0 L 8.875 -4.171875 L 5.765625 -4.171875 L 5.453125 0 Z M 6.15625 -8.28125 L 8.484375 -8.28125 L 7.34375 -21.390625 L 7.109375 -21.390625 Z M 6.15625 -8.28125 "/></g></g></g><g fill="#ffffff" fill-opacity="1"><g transform="translate(227.343788, 294.860021)"><g><path d="M 1.140625 0 L 1.140625 -25.765625 L 6.453125 -25.765625 L 8.8125 -13.4375 L 8.8125 -25.765625 L 13.796875 -25.765625 L 13.796875 0 L 8.765625 0 L 6.1875 -12.90625 L 6.1875 0 Z M 1.140625 0 "/></g></g></g><g fill="#ffffff" fill-opacity="1"><g transform="translate(242.277983, 294.860021)"><g><path d="M 3.359375 0 L 3.359375 -20.8125 L 0.296875 -20.8125 L 0.296875 -25.765625 L 11.578125 -25.765625 L 11.578125 -20.8125 L 8.515625 -20.8125 L 8.515625 0 Z M 3.359375 0 "/></g></g></g><g fill="#ffffff" fill-opacity="1"><g transform="translate(254.153368, 294.860021)"><g><path d="M 0.90625 0 L 0.90625 -25.765625 L 5.875 -25.765625 L 5.875 0 Z M 0.90625 0 "/></g></g></g><g fill="#ffffff" fill-opacity="1"><g transform="translate(260.960725, 294.860021)"><g><path d="M 0.453125 0 L 2.9375 -25.765625 L 11.671875 -25.765625 L 14.125 0 L 9.234375 0 L 8.875 -4.171875 L 5.765625 -4.171875 L 5.453125 0 Z M 6.15625 -8.28125 L 8.484375 -8.28125 L 7.34375 -21.390625 L 7.109375 -21.390625 Z M 6.15625 -8.28125 "/></g></g></g><g fill="#ffffff" fill-opacity="1"><g transform="translate(275.505089, 294.860021)"><g><path d="M 6.453125 0.234375 C 4.585938 0.234375 3.203125 -0.414062 2.296875 -1.71875 C 1.390625 -3.03125 0.9375 -5.019531 0.9375 -7.6875 L 0.9375 -18.78125 C 0.9375 -21.15625 1.460938 -22.953125 2.515625 -24.171875 C 3.578125 -25.398438 5.160156 -26.015625 7.265625 -26.015625 C 8.960938 -26.015625 10.28125 -25.671875 11.21875 -24.984375 C 12.15625 -24.304688 12.800781 -23.316406 13.15625 -22.015625 C 13.519531 -20.710938 13.703125 -19.046875 13.703125 -17.015625 L 8.671875 -17.015625 L 8.671875 -19.3125 C 8.671875 -19.9375 8.582031 -20.414062 8.40625 -20.75 C 8.238281 -21.09375 7.9375 -21.265625 7.5 -21.265625 C 6.519531 -21.265625 6.03125 -20.625 6.03125 -19.34375 L 6.03125 -6.875 C 6.03125 -6.09375 6.128906 -5.5 6.328125 -5.09375 C 6.523438 -4.695312 6.875 -4.5 7.375 -4.5 C 7.875 -4.5 8.222656 -4.695312 8.421875 -5.09375 C 8.628906 -5.5 8.734375 -6.09375 8.734375 -6.875 L 8.734375 -10.5625 L 7.34375 -10.5625 L 7.34375 -15 L 13.65625 -15 L 13.65625 0 L 11.578125 0 L 10.703125 -2.15625 C 9.785156 -0.5625 8.367188 0.234375 6.453125 0.234375 Z M 6.453125 0.234375 "/></g></g></g><g fill="#ffffff" fill-opacity="1"><g transform="translate(290.04943, 294.860021)"><g><path d="M 7.296875 0.234375 C 5.210938 0.234375 3.628906 -0.394531 2.546875 -1.65625 C 1.472656 -2.925781 0.9375 -4.710938 0.9375 -7.015625 L 0.9375 -19.296875 C 0.9375 -21.515625 1.472656 -23.1875 2.546875 -24.3125 C 3.628906 -25.445312 5.210938 -26.015625 7.296875 -26.015625 C 9.367188 -26.015625 10.945312 -25.445312 12.03125 -24.3125 C 13.113281 -23.1875 13.65625 -21.515625 13.65625 -19.296875 L 13.65625 -7.015625 C 13.65625 -4.703125 13.113281 -2.914062 12.03125 -1.65625 C 10.945312 -0.394531 9.367188 0.234375 7.296875 0.234375 Z M 7.296875 -4.5 C 7.753906 -4.5 8.0625 -4.695312 8.21875 -5.09375 C 8.375 -5.5 8.453125 -6.0625 8.453125 -6.78125 L 8.453125 -19.375 C 8.453125 -19.9375 8.378906 -20.390625 8.234375 -20.734375 C 8.085938 -21.085938 7.78125 -21.265625 7.3125 -21.265625 C 6.457031 -21.265625 6.03125 -20.613281 6.03125 -19.3125 L 6.03125 -6.75 C 6.03125 -6.007812 6.117188 -5.445312 6.296875 -5.0625 C 6.472656 -4.6875 6.804688 -4.5 7.296875 -4.5 Z M 7.296875 -4.5 "/></g></g></g><g clip-path="url(#a7ba5850e6)"><g clip-path="url(#b6c61800c6)"><path fill="#cb1f27" d="M 243.574219 64.3125 L 309.144531 64.3125 L 309.144531 162.671875 L 243.574219 162.671875 Z M 243.574219 64.3125 " fill-opacity="1" fill-rule="nonzero"/></g></g><path stroke-linecap="butt" transform="matrix(0.749922, 0.0107793, -0.0107793, 0.749922, 343.149356, 97.243383)" fill="none" stroke-linejoin="miter" d="M -0.00156792 6.4991 L 27.647101 6.497557 " stroke="#000000" stroke-width="13" stroke-opacity="1" stroke-miterlimit="4"/><path stroke-linecap="butt" transform="matrix(0.75, -0.000000000000000651, 0.000000000000000651, 0.75, 14.518807, 97.242848)" fill="none" stroke-linejoin="miter" d="M 0.000965791 6.49912 L 32.631176 6.49912 " stroke="#000000" stroke-width="13" stroke-opacity="1" stroke-miterlimit="4"/><g clip-path="url(#43b0511067)"><g clip-path="url(#b61e6198b7)"><path fill="#cb1f27" d="M 159.242188 64.363281 L 224.441406 64.363281 L 224.441406 146.882812 L 159.242188 146.882812 Z M 159.242188 64.363281 " fill-opacity="1" fill-rule="nonzero"/></g></g><g clip-path="url(#028faae8b6)"><g clip-path="url(#3054e32332)"><path fill="#cb1f27" d="M 66.542969 64.3125 L 133.71875 64.3125 L 133.71875 162.453125 L 66.542969 162.453125 Z M 66.542969 64.3125 " fill-opacity="1" fill-rule="nonzero"/></g></g><path stroke-linecap="butt" transform="matrix(-0.24265, 0.709663, -0.709663, -0.24265, 134.057441, 64.478242)" fill="none" stroke-linejoin="miter" d="M -0.00204947 0.499975 L 138.361607 0.500359 " stroke="#000000" stroke-width="1" stroke-opacity="1" stroke-miterlimit="4"/><path stroke-linecap="butt" transform="matrix(0.22938, 0.714062, -0.714062, 0.22938, 244.724974, 64.200603)" fill="none" stroke-linejoin="miter" d="M 0.00110499 0.501413 L 137.573316 0.498266 " stroke="#000000" stroke-width="1" stroke-opacity="1" stroke-miterlimit="4"/><path stroke-linecap="butt" transform="matrix(0.275831, -0.697436, 0.697436, 0.275831, 191.491355, 146.653306)" fill="none" stroke-linejoin="miter" d="M -0.00227935 0.500573 L 118.187899 0.502054 " stroke="#000000" stroke-width="1" stroke-opacity="1" stroke-miterlimit="4"/><path stroke-linecap="butt" transform="matrix(-0.275831, -0.697436, 0.697436, -0.275831, 191.491252, 146.929135)" fill="none" stroke-linejoin="miter" d="M -0.00210684 0.498986 L 118.188074 0.4975 " stroke="#000000" stroke-width="1" stroke-opacity="1" stroke-miterlimit="4"/><g clip-path="url(#5bb7f63afe)"><path fill="#000000" d="M 20.542969 90.621094 L 26.382812 90.621094 L 26.382812 99.96875 L 20.542969 99.96875 Z M 20.542969 90.621094 " fill-opacity="1" fill-rule="nonzero"/></g><g clip-path="url(#e70bae8961)"><path fill="#000000" d="M 21.445312 83.820312 L 25.195312 83.820312 L 25.195312 98.015625 L 21.445312 98.015625 Z M 21.445312 83.820312 " fill-opacity="1" fill-rule="nonzero"/></g><g clip-path="url(#860a230356)"><path fill="#000000" d="M 20.542969 83.820312 L 26.382812 83.820312 L 26.382812 88.675781 L 20.542969 88.675781 Z M 20.542969 83.820312 " fill-opacity="1" fill-rule="nonzero"/></g><g clip-path="url(#3cac43e1f4)"><g clip-path="url(#4072958c53)"><path fill="#000000" d="M 21.898438 103.5 L 36.449219 103.5 L 36.449219 120.550781 L 21.898438 120.550781 Z M 21.898438 103.5 " fill-opacity="1" fill-rule="nonzero"/></g></g><g clip-path="url(#e042538177)"><g clip-path="url(#a666cf20a0)"><path fill="#000000" d="M 23.25 103.324219 L 34.5 103.324219 L 34.5 118.53125 L 23.25 118.53125 Z M 23.25 103.324219 " fill-opacity="1" fill-rule="nonzero"/></g></g><g clip-path="url(#202662a0f0)"><path fill="#000000" d="M 351.546875 90.621094 L 357.484375 90.621094 L 357.484375 106.121094 L 351.546875 106.121094 Z M 351.546875 90.621094 " fill-opacity="1" fill-rule="nonzero"/></g><g clip-path="url(#64d3623e31)"><g clip-path="url(#b46c33d9e3)"><path fill="#000000" d="M 343.648438 87.777344 L 357.074219 87.777344 L 357.074219 103.929688 L 343.648438 103.929688 Z M 343.648438 87.777344 " fill-opacity="1" fill-rule="nonzero"/></g></g><g clip-path="url(#5ae256f64b)"><g clip-path="url(#98ac70cb3f)"><path fill="#000000" d="M 342.824219 89.085938 L 357.824219 89.085938 L 357.824219 102.015625 L 342.824219 102.015625 Z M 342.824219 89.085938 " fill-opacity="1" fill-rule="nonzero"/></g></g><g clip-path="url(#0b3caf8839)"><g clip-path="url(#ca422ec860)"><path fill="#000000" d="M 343.125 102.800781 L 356.175781 102.800781 L 356.175781 116.257812 L 343.125 116.257812 Z M 343.125 102.800781 " fill-opacity="1" fill-rule="nonzero"/></g></g><g clip-path="url(#115e6cd435)"><g clip-path="url(#e751273e24)"><path fill="#000000" d="M 342.976562 103.585938 L 353.550781 103.585938 L 353.550781 115.816406 L 342.976562 115.816406 Z M 342.976562 103.585938 " fill-opacity="1" fill-rule="nonzero"/></g></g><g clip-path="url(#1bbf5ded6f)"><g clip-path="url(#d0aec116d4)"><path fill="#000000" d="M 343.273438 87.777344 L 354.523438 87.777344 L 354.523438 103.332031 L 343.273438 103.332031 Z M 343.273438 87.777344 " fill-opacity="1" fill-rule="nonzero"/></g></g><g clip-path="url(#8cd1ab3afe)"><g clip-path="url(#e32196610d)"><path fill="#000000" d="M 344.476562 91.359375 L 354 91.359375 L 354 101.328125 L 344.476562 101.328125 Z M 344.476562 91.359375 " fill-opacity="1" fill-rule="nonzero"/></g></g><g clip-path="url(#549a7f988c)"><g clip-path="url(#704dcdba40)"><path fill="#1e1e1e" d="M 23.699219 86.816406 L 38.175781 86.816406 L 38.175781 102.535156 L 23.699219 102.535156 Z M 23.699219 86.816406 " fill-opacity="1" fill-rule="nonzero"/></g></g><g clip-path="url(#58db4f24d0)"><g clip-path="url(#d807688238)"><path fill="#000000" d="M 22.125 87.777344 L 37.339844 87.777344 L 37.339844 101.492188 L 22.125 101.492188 Z M 22.125 87.777344 " fill-opacity="1" fill-rule="nonzero"/></g></g><g clip-path="url(#a7143544ba)"><g clip-path="url(#40fb4e4afa)"><path fill="#000000" d="M 26.851562 104.375 L 37.050781 104.375 L 37.050781 116.882812 L 26.851562 116.882812 Z M 26.851562 104.375 " fill-opacity="1" fill-rule="nonzero"/></g></g><g clip-path="url(#989a5aab00)"><g clip-path="url(#9ce2efe168)"><path fill="#000000" d="M 25.199219 86.902344 L 35.925781 86.902344 L 35.925781 101.648438 L 25.199219 101.648438 Z M 25.199219 86.902344 " fill-opacity="1" fill-rule="nonzero"/></g></g><path stroke-linecap="butt" transform="matrix(0.580428, 0.474977, -0.474977, 0.580428, 23.135564, 95.417689)" fill="none" stroke-linejoin="miter" d="M 4.178677 4.421366 C 69.332712 80.561635 153.401625 80.5597 256.392012 4.423622 " stroke="#000000" stroke-width="11" stroke-opacity="1" stroke-miterlimit="4"/><path stroke-linecap="butt" transform="matrix(-0.593805, 0.458144, -0.458144, -0.593805, 383.015019, 138.271119)" fill="none" stroke-linejoin="miter" d="M 3.898696 57.17014 C 72.381453 -11.7249 155.070391 -11.723877 251.961387 57.170027 " stroke="#000000" stroke-width="11" stroke-opacity="1" stroke-miterlimit="4"/><g clip-path="url(#6d449ffa6b)"><g clip-path="url(#f958b62458)"><path fill="#000000" d="M 342.226562 105.945312 L 351.449219 105.945312 L 351.449219 117.226562 L 342.226562 117.226562 Z M 342.226562 105.945312 " fill-opacity="1" fill-rule="nonzero"/></g></g></svg>