<svg version="1.2" xmlns="http://www.w3.org/2000/svg" viewBox="0 0 400 400" width="400" height="400">
	<title>New Project</title>
	<style>
		.s0 { fill: #000000 } 
	</style>
	<path id="Shape 1" fill-rule="evenodd" class="s0" d="m200 50c-82.8 0-150 67.2-150 150 0 82.8 67.2 150 150 150 13.8 0 25 11.2 25 25 0 13.8-11.2 25-25 25-110.5 0-200-89.5-200-200 0-110.5 89.5-200 200-200 110.5 0 200 89.5 200 200v25c0 41.4-33.6 75-75 75-22.9 0-43.4-10.3-57.2-26.5-17.8 16.4-41.6 26.5-67.8 26.5-55.2 0-100-44.8-100-100 0-55.2 44.8-100 100-100 21.8 0 42 7 58.4 18.8 4.4-3.9 10.2-6.3 16.6-6.3 13.8 0 25 11.2 25 25v87.5c0 13.8 11.2 25 25 25 13.8 0 25-11.2 25-25v-25c0-82.8-67.2-150-150-150zm50 150c0-13.3-5.3-26-14.6-35.4-9.4-9.3-22.1-14.6-35.4-14.6-13.3 0-26 5.3-35.4 14.6-9.3 9.4-14.6 22.1-14.6 35.4 0 13.3 5.3 26 14.6 35.4 9.4 9.3 22.1 14.6 35.4 14.6 13.3 0 26-5.3 35.4-14.6 9.3-9.4 14.6-22.1 14.6-35.4z"/>
</svg>