<svg version="1.2" xmlns="http://www.w3.org/2000/svg" viewBox="0 0 400 400" width="400" height="400">
	<title>statisticsSymbol</title>
	<style>
		.s0 { fill: none;stroke: #000000;stroke-miterlimit:100;stroke-width: 20 } 
	</style>
	<path id="Shape 4" class="s0" d=""/>
	<path id="Shape 6" fill-rule="evenodd" class="s0" d="m195.1 174.1l28-0.2c16.5-0.2 30.1 13.2 30.2 29.7l1.4 156c0.1 16.6-13.2 30.1-29.8 30.3l-28 0.2c-16.5 0.2-30.1-13.2-30.2-29.7l-1.4-156c-0.1-16.6 13.2-30.1 29.8-30.3z"/>
	<path id="Shape 5" fill-rule="evenodd" class="s0" d="m40 10h73c16.6 0 30 13.4 30 30v320c0 16.6-13.4 30-30 30h-73c-16.6 0-30-13.4-30-30v-320c0-16.6 13.4-30 30-30z"/>
	<path id="Shape 7" fill-rule="evenodd" class="s0" d="m307 267h53c16.6 0 30 13.4 30 30v63c0 16.6-13.4 30-30 30h-53c-16.6 0-30-13.4-30-30v-63c0-16.6 13.4-30 30-30z"/>
</svg>