<svg xmlns="http://www.w3.org/2000/svg" xmlns:xlink="http://www.w3.org/1999/xlink" width="500" zoomAndPan="magnify" viewBox="0 0 375 374.999991" height="500" preserveAspectRatio="xMidYMid meet" version="1.2"><defs><clipPath id="1bed67b7f2"><path d="M 0.00390625 0 L 375 0 L 375 285.75 L 0.00390625 285.75 Z M 0.00390625 0 "/></clipPath><clipPath id="228f0d3175"><path d="M 187.339844 0 C 83.878906 0 0.00390625 63.96875 0.00390625 142.875 C 0.00390625 221.78125 83.878906 285.75 187.339844 285.75 C 290.800781 285.75 374.671875 221.78125 374.671875 142.875 C 374.671875 63.96875 290.800781 0 187.339844 0 Z M 187.339844 0 "/></clipPath><clipPath id="585560f9dc"><path d="M 112.128906 129.304688 L 160.398438 129.304688 L 160.398438 254.878906 L 112.128906 254.878906 Z M 112.128906 129.304688 "/></clipPath><clipPath id="967e3f04eb"><path d="M 136.261719 129.304688 L 160.398438 254.796875 L 112.128906 254.796875 Z M 136.261719 129.304688 "/></clipPath><clipPath id="e828f7cd5f"><path d="M 112.128906 129.316406 L 160.128906 129.316406 L 160.128906 254.25 L 112.128906 254.25 Z M 112.128906 129.316406 "/></clipPath><clipPath id="4a5c555c66"><path d="M 136.128906 129.316406 L 160.128906 254.109375 L 112.128906 254.109375 Z M 136.128906 129.316406 "/></clipPath><clipPath id="756280c8ad"><path d="M 217.457031 129.304688 L 267.480469 129.304688 L 267.480469 254.957031 L 217.457031 254.957031 Z M 217.457031 129.304688 "/></clipPath><clipPath id="f62ff018ba"><path d="M 242.46875 129.304688 L 267.480469 254.796875 L 217.457031 254.796875 Z M 242.46875 129.304688 "/></clipPath><clipPath id="e71349a69e"><path d="M 217.457031 129.316406 L 267.605469 129.316406 L 267.605469 254.554688 L 217.457031 254.554688 Z M 217.457031 129.316406 "/></clipPath><clipPath id="d9d47b9d11"><path d="M 242.417969 129.316406 L 267.378906 254.546875 L 217.457031 254.546875 Z M 242.417969 129.316406 "/></clipPath><clipPath id="8fba36b3f3"><path d="M 256.636719 70.371094 L 337.5 70.371094 L 337.5 249.472656 L 256.636719 249.472656 Z M 256.636719 70.371094 "/></clipPath><clipPath id="48e86e419d"><path d="M 297.066406 249.21875 L 337.5 70.371094 L 256.636719 70.371094 Z M 297.066406 249.21875 "/></clipPath><clipPath id="342b9cd945"><path d="M 152.636719 70.460938 L 233.039062 70.460938 L 233.039062 220.59375 L 152.636719 220.59375 Z M 152.636719 70.460938 "/></clipPath><clipPath id="d247cf72c5"><path d="M 192.839844 220.535156 L 233.039062 70.460938 L 152.636719 70.460938 Z M 192.839844 220.535156 "/></clipPath><clipPath id="2e8a0e1b84"><path d="M 38.320312 70.371094 L 121.164062 70.371094 L 121.164062 249.324219 L 38.320312 249.324219 Z M 38.320312 70.371094 "/></clipPath><clipPath id="3c869b079f"><path d="M 79.742188 249.21875 L 121.164062 70.371094 L 38.320312 70.371094 Z M 79.742188 249.21875 "/></clipPath><clipPath id="6155737aea"><path d="M 112.851562 251.800781 L 159.109375 251.800781 L 159.109375 254.902344 L 112.851562 254.902344 Z M 112.851562 251.800781 "/></clipPath><clipPath id="8c9ad1d2d9"><path d="M 125.699219 253.609375 C 122.476562 255.0625 115.574219 255.0625 114 254.621094 C 113.398438 254.492188 113.101562 254.304688 113.023438 253.988281 C 112.875 253.671875 112.875 253.101562 113.25 252.785156 C 113.699219 252.34375 114.75 252.34375 116.398438 252.152344 C 121.875 251.648438 146.550781 251.835938 153.148438 251.902344 C 155.625 251.964844 157.199219 251.773438 158.175781 252.152344 C 158.625 252.34375 158.925781 252.597656 159.074219 252.914062 C 159.148438 253.230469 159 253.734375 158.773438 253.988281 C 158.550781 254.175781 157.949219 254.367188 157.574219 254.367188 C 157.199219 254.304688 156.675781 254.050781 156.523438 253.734375 C 156.375 253.480469 156.375 252.976562 156.523438 252.660156 C 156.675781 252.40625 157.199219 252.089844 157.574219 252.089844 C 158.023438 252.089844 159.074219 252.785156 159.074219 253.164062 C 159.148438 253.546875 158.625 254.050781 157.726562 254.367188 C 153.824219 255.757812 128.398438 253.863281 120.976562 254.113281 C 117.75 254.175781 115.273438 255.0625 114 254.621094 C 113.324219 254.429688 112.875 253.863281 112.875 253.480469 C 112.875 253.101562 113.476562 252.660156 114.074219 252.40625 C 115.273438 252.027344 118.199219 252.847656 120.074219 252.722656 C 121.800781 252.660156 123.824219 251.773438 124.875 251.964844 C 125.398438 252.027344 125.851562 252.28125 125.925781 252.53125 C 126.074219 252.847656 125.699219 253.609375 125.699219 253.609375 "/></clipPath><clipPath id="2782815fc2"><path d="M 130.613281 249 L 130.894531 249 L 130.894531 249.25 L 130.613281 249.25 Z M 130.613281 249 "/></clipPath><clipPath id="583e6288a1"><path d="M 130.800781 249.242188 C 130.351562 248.738281 130.875 249.179688 130.875 249.179688 "/></clipPath><clipPath id="0ee54f59c2"><path d="M 158.546875 253.921875 L 158.949219 253.921875 L 158.949219 254.304688 L 158.546875 254.304688 Z M 158.546875 253.921875 "/></clipPath><clipPath id="a2fd8d86da"><path d="M 158.550781 253.925781 C 159.375 254.050781 158.625 254.304688 158.625 254.304688 "/></clipPath><clipPath id="a3d9d445b5"><path d="M 158.3125 253.351562 L 158.886719 253.351562 L 158.886719 254.066406 L 158.3125 254.066406 Z M 158.3125 253.351562 "/></clipPath><clipPath id="aacdada91c"><path d="M 158.625 253.355469 C 159.300781 254.175781 158.398438 254.113281 158.324219 253.925781 C 158.25 253.796875 158.625 253.355469 158.625 253.355469 "/></clipPath><clipPath id="1bc6ba2c5b"><path d="M 159.257812 253.214844 L 159.6875 253.214844 L 159.6875 253.6875 L 159.257812 253.6875 Z M 159.257812 253.214844 "/></clipPath><clipPath id="8a20537862"><path d="M 159.675781 253.671875 C 158.773438 253.417969 159.675781 253.230469 159.675781 253.230469 "/></clipPath><clipPath id="89c7dac526"><path d="M 158.164062 252.953125 L 160 252.953125 L 160 254.6875 L 158.164062 254.6875 Z M 158.164062 252.953125 "/></clipPath><clipPath id="3713c80840"><path d="M 158.851562 252.976562 C 159.523438 254.175781 158.851562 254.175781 158.851562 254.242188 C 158.851562 254.367188 159.976562 254.429688 159.976562 254.492188 C 159.976562 254.558594 159.226562 254.683594 159.226562 254.683594 C 159.226562 254.683594 159.898438 254.621094 159.976562 254.429688 C 160.050781 254.304688 159.675781 253.734375 159.449219 253.671875 C 159.300781 253.671875 159.074219 254.304688 158.851562 254.242188 C 158.625 254.242188 158.101562 253.355469 158.175781 253.164062 C 158.25 253.039062 158.851562 252.976562 158.851562 252.976562 "/></clipPath><clipPath id="53b82a2b44"><path d="M 241.773438 248.804688 L 243.238281 248.804688 L 243.238281 249.832031 L 241.773438 249.832031 Z M 241.773438 248.804688 "/></clipPath><clipPath id="de60b1fd33"><path d="M 243.226562 249.179688 C 242.550781 250.003906 241.949219 249.875 241.875 249.6875 C 241.726562 249.496094 241.800781 248.992188 242.023438 248.863281 C 242.25 248.738281 243 248.925781 243 248.925781 "/></clipPath><clipPath id="5b993cb47e"><path d="M 221.238281 252.761719 L 240.683594 252.761719 L 240.683594 254.566406 L 221.238281 254.566406 Z M 221.238281 252.761719 "/></clipPath><clipPath id="22b5783fec"><path d="M 240.148438 254.558594 C 221.699219 254.558594 221.25 254.558594 221.25 254.492188 C 221.25 254.429688 222.523438 254.492188 222.675781 254.242188 C 222.824219 254.050781 221.851562 253.230469 221.925781 253.101562 C 222.074219 252.914062 223.351562 253.039062 223.5 253.230469 C 223.574219 253.417969 222.898438 254.304688 222.675781 254.242188 C 222.449219 254.242188 221.851562 253.164062 222 253.039062 C 222.148438 252.914062 223.5 253.164062 223.5 253.417969 C 223.574219 253.609375 222.75 254.242188 222.449219 254.242188 C 222.148438 254.242188 221.773438 253.671875 221.773438 253.417969 C 221.851562 253.164062 222.75 252.847656 222.675781 252.785156 C 222.675781 252.722656 221.324219 252.914062 221.398438 252.976562 C 221.398438 253.230469 238.199219 252.46875 240.074219 253.292969 C 240.523438 253.480469 240.675781 253.796875 240.675781 253.988281 C 240.675781 254.175781 240.148438 254.558594 240.148438 254.558594 "/></clipPath><clipPath id="8c5abd0019"><path d="M 262.769531 253.195312 L 265.714844 253.195312 L 265.714844 254.667969 L 262.769531 254.667969 Z M 262.769531 253.195312 "/></clipPath><clipPath id="5ac400f5a6"><path d="M 262.949219 253.292969 C 265.800781 253.480469 265.351562 254.367188 265.125 254.367188 C 264.898438 254.429688 264.375 253.863281 264.449219 253.609375 C 264.523438 253.417969 265.425781 253.101562 265.574219 253.230469 C 265.800781 253.292969 265.726562 254.113281 265.425781 254.367188 C 265.050781 254.683594 263.25 254.746094 262.875 254.492188 C 262.648438 254.242188 262.949219 253.292969 262.949219 253.292969 "/></clipPath><clipPath id="2222fce75f"><path d="M 258.257812 252.449219 L 263.289062 252.449219 L 263.289062 254.179688 L 258.257812 254.179688 Z M 258.257812 252.449219 "/></clipPath><clipPath id="0321eba3c2"><path d="M 262.574219 254.175781 C 258.300781 253.925781 258.226562 252.914062 258.375 252.785156 C 258.601562 252.660156 259.800781 253.230469 259.800781 253.417969 C 259.800781 253.609375 258.449219 253.925781 258.375 253.796875 C 258.226562 253.671875 258.675781 252.660156 258.976562 252.597656 C 259.199219 252.597656 259.875 253.355469 259.726562 253.546875 C 259.648438 253.734375 258.375 253.863281 258.300781 253.734375 C 258.148438 253.546875 258.523438 252.785156 258.976562 252.597656 C 259.726562 252.28125 262.351562 252.597656 262.949219 252.976562 C 263.25 253.164062 263.324219 253.609375 263.25 253.796875 C 263.175781 253.988281 262.574219 254.175781 262.574219 254.175781 "/></clipPath><clipPath id="fc6c30bd5f"><path d="M 222.726562 250.683594 L 223.050781 250.683594 L 223.050781 250.921875 L 222.726562 250.921875 Z M 222.726562 250.683594 "/></clipPath><clipPath id="d7dc0f9443"><path d="M 223.050781 250.824219 C 222.375 251.078125 222.976562 250.699219 222.976562 250.699219 "/></clipPath><clipPath id="b0cb7a20be"><path d="M 218.332031 253.261719 L 224.070312 253.261719 L 224.070312 254.8125 L 218.332031 254.8125 Z M 218.332031 253.261719 "/></clipPath><clipPath id="b6da1157f1"><path d="M 221.699219 253.417969 C 222.75 253.863281 222.300781 254.175781 221.925781 254.304688 C 221.25 254.558594 219.226562 254.621094 218.925781 254.304688 C 218.773438 254.175781 218.773438 253.796875 219 253.671875 C 219.300781 253.355469 220.875 253.417969 221.773438 253.480469 C 222.523438 253.546875 223.726562 253.546875 223.949219 253.796875 C 224.101562 253.988281 224.101562 254.304688 223.875 254.429688 C 223.351562 254.875 218.925781 254.9375 218.476562 254.558594 C 218.25 254.367188 218.324219 253.988281 218.550781 253.863281 C 218.925781 253.480469 221.476562 253.230469 221.925781 253.480469 C 222.148438 253.609375 222.226562 254.050781 222.074219 254.175781 C 221.773438 254.558594 218.851562 254.875 218.550781 254.558594 C 218.398438 254.429688 218.398438 253.988281 218.625 253.863281 C 219.226562 253.417969 223.199219 253.355469 223.800781 253.796875 C 223.949219 253.925781 224.023438 254.304688 223.875 254.429688 C 223.425781 254.808594 219.148438 254.746094 218.925781 254.304688 C 218.773438 254.175781 219 253.796875 219.300781 253.609375 C 219.824219 253.292969 222 253.164062 222.375 253.417969 C 222.601562 253.609375 222.601562 253.988281 222.449219 254.113281 C 222.300781 254.242188 221.476562 254.113281 221.324219 253.988281 C 221.25 253.863281 221.699219 253.417969 221.699219 253.417969 "/></clipPath><clipPath id="d6b737bcc0"><path d="M 239.207031 252.804688 L 263.875 252.804688 L 263.875 254.835938 L 239.207031 254.835938 Z M 239.207031 252.804688 "/></clipPath><clipPath id="3deec45440"><path d="M 241.351562 253.796875 C 263.851562 254.304688 249.300781 254.367188 244.800781 254.242188 C 242.398438 254.175781 239.625 254.304688 239.25 253.863281 C 239.101562 253.671875 239.398438 253.230469 239.398438 253.292969 C 239.398438 253.292969 239.25 253.863281 239.25 253.863281 C 239.25 253.863281 239.175781 253.417969 239.398438 253.230469 C 240.75 252.28125 260.625 253.164062 263.023438 253.671875 C 263.476562 253.734375 263.773438 253.796875 263.851562 253.988281 C 263.851562 254.113281 263.699219 254.304688 263.398438 254.429688 C 262.199219 255 254.625 254.808594 250.875 254.746094 C 247.875 254.746094 244.351562 254.621094 242.699219 254.492188 C 241.875 254.429688 241.273438 254.492188 240.976562 254.304688 C 240.75 254.113281 240.523438 253.609375 240.601562 253.546875 C 240.675781 253.480469 241.351562 253.796875 241.351562 253.796875 "/></clipPath><clipPath id="d5e7529df0"><path d="M 238.628906 253.34375 L 243.15625 253.34375 L 243.15625 254.238281 L 238.628906 254.238281 Z M 238.628906 253.34375 "/></clipPath><clipPath id="49d7b8df6d"><path d="M 243.148438 253.355469 C 240.523438 254.621094 238.648438 254.175781 238.648438 253.988281 C 238.648438 253.796875 243.148438 253.355469 243.148438 253.355469 "/></clipPath><clipPath id="c1768e2422"><path d="M 239.195312 253.421875 L 242.488281 253.421875 L 242.488281 254.769531 L 239.195312 254.769531 Z M 239.195312 253.421875 "/></clipPath><clipPath id="a7babccbe3"><path d="M 242.476562 253.988281 C 239.324219 254.621094 239.398438 254.050781 239.398438 254.050781 C 239.398438 254.050781 239.550781 254.746094 239.476562 254.746094 C 239.476562 254.746094 239.101562 254.304688 239.25 254.175781 C 239.398438 253.796875 241.648438 253.292969 242.101562 253.480469 C 242.324219 253.546875 242.476562 253.988281 242.476562 253.988281 "/></clipPath><clipPath id="4d05dba059"><path d="M 239.589844 253.476562 L 247.199219 253.476562 L 247.199219 255.03125 L 239.589844 255.03125 Z M 239.589844 253.476562 "/></clipPath><clipPath id="46a04112fc"><path d="M 243.375 254.175781 C 239.699219 254.683594 239.625 254.304688 239.851562 254.113281 C 240.449219 253.546875 246.449219 253.230469 247.050781 253.734375 C 247.273438 253.863281 247.050781 254.429688 247.050781 254.429688 C 247.050781 254.429688 247.050781 253.734375 247.050781 253.734375 C 247.050781 253.734375 247.273438 254.242188 247.125 254.429688 C 246.523438 254.9375 240.601562 255.253906 239.851562 254.808594 C 239.625 254.621094 239.550781 254.304688 239.625 254.175781 C 239.851562 253.863281 241.5 253.734375 242.175781 253.671875 C 242.699219 253.609375 243.375 253.417969 243.523438 253.609375 C 243.601562 253.671875 243.375 254.175781 243.375 254.175781 "/></clipPath><clipPath id="b9f079fc51"><path d="M 264.816406 252.824219 L 266.351562 252.824219 L 266.351562 254.464844 L 264.816406 254.464844 Z M 264.816406 252.824219 "/></clipPath><clipPath id="32dad77728"><path d="M 266.324219 254.050781 C 265.875 254.746094 264.898438 254.367188 264.824219 254.113281 C 264.75 253.796875 265.648438 252.847656 265.648438 252.847656 "/></clipPath><clipPath id="1c2cdef2b8"><path d="M 265.75 253.917969 L 266.339844 253.917969 L 266.339844 254.351562 L 265.75 254.351562 Z M 265.75 253.917969 "/></clipPath><clipPath id="c31e1281ff"><path d="M 266.324219 254.242188 C 265.425781 254.558594 265.875 253.925781 265.875 253.925781 "/></clipPath></defs><g id="6306fa8047"><g clip-rule="nonzero" clip-path="url(#1bed67b7f2)"><g clip-rule="nonzero" clip-path="url(#228f0d3175)"><path style="fill:none;stroke-width:26;stroke-linecap:butt;stroke-linejoin:miter;stroke:#545454;stroke-opacity:1;stroke-miterlimit:4;" d="M 249.994634 0.000000000000028446 C 111.9279 0.000000000000028446 -0.00175779 85.36513 -0.00175779 190.664081 C -0.00175779 295.963032 111.9279 381.328162 249.994634 381.328162 C 388.061367 381.328162 499.985812 295.963032 499.985812 190.664081 C 499.985812 85.36513 388.061367 0.000000000000028446 249.994634 0.000000000000028446 Z M 249.994634 0.000000000000028446 " transform="matrix(0.749355,0,0,0.749355,0.00522345,-0.000000000000021316)"/></g></g><g clip-rule="nonzero" clip-path="url(#585560f9dc)"><g clip-rule="nonzero" clip-path="url(#967e3f04eb)"><path style=" stroke:none;fill-rule:nonzero;fill:#cb1f27;fill-opacity:1;" d="M 112.128906 129.304688 L 160.398438 129.304688 L 160.398438 254.878906 L 112.128906 254.878906 Z M 112.128906 129.304688 "/></g></g><g clip-rule="nonzero" clip-path="url(#e828f7cd5f)"><g clip-rule="nonzero" clip-path="url(#4a5c555c66)"><path style="fill:none;stroke-width:2;stroke-linecap:butt;stroke-linejoin:miter;stroke:#000000;stroke-opacity:1;stroke-miterlimit:4;" d="M 32.172639 0.000403679 L 64.344516 167.284739 L 0.000761821 167.284739 Z M 32.172639 0.000403679 " transform="matrix(0.745993,0,0,0.745993,112.128338,129.316105)"/></g></g><g clip-rule="nonzero" clip-path="url(#756280c8ad)"><g clip-rule="nonzero" clip-path="url(#f62ff018ba)"><path style=" stroke:none;fill-rule:nonzero;fill:#cb1f27;fill-opacity:1;" d="M 217.457031 129.304688 L 267.480469 129.304688 L 267.480469 254.761719 L 217.457031 254.761719 Z M 217.457031 129.304688 "/></g></g><g clip-rule="nonzero" clip-path="url(#e71349a69e)"><g clip-rule="nonzero" clip-path="url(#d9d47b9d11)"><path style="fill:none;stroke-width:2;stroke-linecap:butt;stroke-linejoin:miter;stroke:#000000;stroke-opacity:1;stroke-miterlimit:4;" d="M 33.344182 0.00216236 L 66.687711 167.28858 L 0.000652191 167.28858 Z M 33.344182 0.00216236 " transform="matrix(0.748599,0,0,0.748599,217.456543,129.314788)"/></g></g><g clip-rule="nonzero" clip-path="url(#8fba36b3f3)"><g clip-rule="nonzero" clip-path="url(#48e86e419d)"><path style=" stroke:none;fill-rule:nonzero;fill:#cb1f27;fill-opacity:1;" d="M 256.636719 70.371094 L 337.5 70.371094 L 337.5 249.15625 L 256.636719 249.15625 Z M 256.636719 70.371094 "/></g></g><g clip-rule="nonzero" clip-path="url(#342b9cd945)"><g clip-rule="nonzero" clip-path="url(#d247cf72c5)"><path style=" stroke:none;fill-rule:nonzero;fill:#cb1f27;fill-opacity:1;" d="M 152.636719 70.460938 L 233.039062 70.460938 L 233.039062 220.59375 L 152.636719 220.59375 Z M 152.636719 70.460938 "/></g></g><g clip-rule="nonzero" clip-path="url(#2e8a0e1b84)"><g clip-rule="nonzero" clip-path="url(#3c869b079f)"><path style=" stroke:none;fill-rule:nonzero;fill:#cb1f27;fill-opacity:1;" d="M 38.320312 70.371094 L 121.164062 70.371094 L 121.164062 249.324219 L 38.320312 249.324219 Z M 38.320312 70.371094 "/></g></g><path style="fill:none;stroke-width:1;stroke-linecap:butt;stroke-linejoin:miter;stroke:#000000;stroke-opacity:1;stroke-miterlimit:4;" d="M -0.00173303 0.502053 L 244.671645 0.50061 " transform="matrix(-0.169219,0.730661,-0.730661,-0.169219,121.503256,70.539348)"/><path style="fill:none;stroke-width:1;stroke-linecap:butt;stroke-linejoin:miter;stroke:#000000;stroke-opacity:1;stroke-miterlimit:4;" d="M -0.00120005 0.499852 L 244.046456 0.499614 " transform="matrix(0.159436,0.732759,-0.732759,0.159436,257.979744,70.296185)"/><path style="fill:none;stroke-width:1;stroke-linecap:butt;stroke-linejoin:miter;stroke:#000000;stroke-opacity:1;stroke-miterlimit:4;" d="M 0.000626832 0.50238 L 207.154218 0.498344 " transform="matrix(0.193937,-0.723965,0.723965,0.193937,192.47211,220.434274)"/><path style="fill:none;stroke-width:1;stroke-linecap:butt;stroke-linejoin:miter;stroke:#000000;stroke-opacity:1;stroke-miterlimit:4;" d="M -0.0000380531 0.500743 L 207.154902 0.499744 " transform="matrix(-0.193937,-0.723965,0.723965,-0.193937,192.469504,220.628335)"/><g clip-rule="nonzero" clip-path="url(#6155737aea)"><g clip-rule="nonzero" clip-path="url(#8c9ad1d2d9)"><path style=" stroke:none;fill-rule:nonzero;fill:#cb1f27;fill-opacity:1;" d="M 109.875 249.371094 L 162.148438 249.371094 L 162.148438 257.152344 L 109.875 257.152344 Z M 109.875 249.371094 "/></g></g><g clip-rule="nonzero" clip-path="url(#2782815fc2)"><g clip-rule="nonzero" clip-path="url(#583e6288a1)"><path style=" stroke:none;fill-rule:nonzero;fill:#cb1f27;fill-opacity:1;" d="M 127.351562 246.207031 L 133.960938 246.207031 L 133.960938 251.773438 L 127.351562 251.773438 Z M 127.351562 246.207031 "/></g></g><g clip-rule="nonzero" clip-path="url(#0ee54f59c2)"><g clip-rule="nonzero" clip-path="url(#a2fd8d86da)"><path style=" stroke:none;fill-rule:nonzero;fill:#cb1f27;fill-opacity:1;" d="M 155.550781 251.394531 L 162.457031 251.394531 L 162.457031 256.835938 L 155.550781 256.835938 Z M 155.550781 251.394531 "/></g></g><g clip-rule="nonzero" clip-path="url(#a3d9d445b5)"><g clip-rule="nonzero" clip-path="url(#aacdada91c)"><path style=" stroke:none;fill-rule:nonzero;fill:#cb1f27;fill-opacity:1;" d="M 155.324219 250.824219 L 162.449219 250.824219 L 162.449219 256.707031 L 155.324219 256.707031 Z M 155.324219 250.824219 "/></g></g><g clip-rule="nonzero" clip-path="url(#1bc6ba2c5b)"><g clip-rule="nonzero" clip-path="url(#8a20537862)"><path style=" stroke:none;fill-rule:nonzero;fill:#cb1f27;fill-opacity:1;" d="M 155.773438 250.699219 L 162.675781 250.699219 L 162.675781 256.203125 L 155.773438 256.203125 Z M 155.773438 250.699219 "/></g></g><g clip-rule="nonzero" clip-path="url(#89c7dac526)"><g clip-rule="nonzero" clip-path="url(#3713c80840)"><path style=" stroke:none;fill-rule:nonzero;fill:#cb1f27;fill-opacity:1;" d="M 155.175781 250.445312 L 163.046875 250.445312 L 163.046875 257.277344 L 155.175781 257.277344 Z M 155.175781 250.445312 "/></g></g><g clip-rule="nonzero" clip-path="url(#53b82a2b44)"><g clip-rule="nonzero" clip-path="url(#de60b1fd33)"><path style=" stroke:none;fill-rule:nonzero;fill:#cb1f27;fill-opacity:1;" d="M 238.875 246.335938 L 246.304688 246.335938 L 246.304688 252.46875 L 238.875 252.46875 Z M 238.875 246.335938 "/></g></g><g clip-rule="nonzero" clip-path="url(#5b993cb47e)"><g clip-rule="nonzero" clip-path="url(#22b5783fec)"><path style=" stroke:none;fill-rule:nonzero;fill:#cb1f27;fill-opacity:1;" d="M 218.25 250.257812 L 243.675781 250.257812 L 243.675781 257.152344 L 218.25 257.152344 Z M 218.25 250.257812 "/></g></g><g clip-rule="nonzero" clip-path="url(#8c5abd0019)"><g clip-rule="nonzero" clip-path="url(#5ac400f5a6)"><path style=" stroke:none;fill-rule:nonzero;fill:#cb1f27;fill-opacity:1;" d="M 259.875 250.699219 L 268.660156 250.699219 L 268.660156 257.085938 L 259.875 257.085938 Z M 259.875 250.699219 "/></g></g><g clip-rule="nonzero" clip-path="url(#2222fce75f)"><g clip-rule="nonzero" clip-path="url(#0321eba3c2)"><path style=" stroke:none;fill-rule:nonzero;fill:#cb1f27;fill-opacity:1;" d="M 255.300781 250.066406 L 266.328125 250.066406 L 266.328125 256.769531 L 255.300781 256.769531 Z M 255.300781 250.066406 "/></g></g><g clip-rule="nonzero" clip-path="url(#fc6c30bd5f)"><g clip-rule="nonzero" clip-path="url(#d7dc0f9443)"><path style=" stroke:none;fill-rule:nonzero;fill:#cb1f27;fill-opacity:1;" d="M 219.375 248.167969 L 226.125 248.167969 L 226.125 253.671875 L 219.375 253.671875 Z M 219.375 248.167969 "/></g></g><g clip-rule="nonzero" clip-path="url(#b0cb7a20be)"><g clip-rule="nonzero" clip-path="url(#b6da1157f1)"><path style=" stroke:none;fill-rule:nonzero;fill:#cb1f27;fill-opacity:1;" d="M 215.476562 250.886719 L 227.023438 250.886719 L 227.023438 257.085938 L 215.476562 257.085938 Z M 215.476562 250.886719 "/></g></g><g clip-rule="nonzero" clip-path="url(#d6b737bcc0)"><g clip-rule="nonzero" clip-path="url(#3deec45440)"><path style=" stroke:none;fill-rule:nonzero;fill:#cb1f27;fill-opacity:1;" d="M 236.25 250.699219 L 266.855469 250.699219 L 266.855469 257.277344 L 236.25 257.277344 Z M 236.25 250.699219 "/></g></g><g clip-rule="nonzero" clip-path="url(#d5e7529df0)"><g clip-rule="nonzero" clip-path="url(#49d7b8df6d)"><path style=" stroke:none;fill-rule:nonzero;fill:#cb1f27;fill-opacity:1;" d="M 235.648438 250.824219 L 246.230469 250.824219 L 246.230469 257.023438 L 235.648438 257.023438 Z M 235.648438 250.824219 "/></g></g><g clip-rule="nonzero" clip-path="url(#c1768e2422)"><g clip-rule="nonzero" clip-path="url(#a7babccbe3)"><path style=" stroke:none;fill-rule:nonzero;fill:#cb1f27;fill-opacity:1;" d="M 236.25 250.953125 L 245.558594 250.953125 L 245.558594 257.339844 L 236.25 257.339844 Z M 236.25 250.953125 "/></g></g><g clip-rule="nonzero" clip-path="url(#4d05dba059)"><g clip-rule="nonzero" clip-path="url(#46a04112fc)"><path style=" stroke:none;fill-rule:nonzero;fill:#cb1f27;fill-opacity:1;" d="M 236.625 251.078125 L 250.117188 251.078125 L 250.117188 257.402344 L 236.625 257.402344 Z M 236.625 251.078125 "/></g></g><g clip-rule="nonzero" clip-path="url(#b9f079fc51)"><g clip-rule="nonzero" clip-path="url(#32dad77728)"><path style=" stroke:none;fill-rule:nonzero;fill:#cb1f27;fill-opacity:1;" d="M 261.824219 250.320312 L 269.3125 250.320312 L 269.3125 257.214844 L 261.824219 257.214844 Z M 261.824219 250.320312 "/></g></g><g clip-rule="nonzero" clip-path="url(#1c2cdef2b8)"><g clip-rule="nonzero" clip-path="url(#c31e1281ff)"><path style=" stroke:none;fill-rule:nonzero;fill:#cb1f27;fill-opacity:1;" d="M 262.5 251.394531 L 269.320312 251.394531 L 269.320312 257.214844 L 262.5 257.214844 Z M 262.5 251.394531 "/></g></g><path style="fill:none;stroke-width:50;stroke-linecap:butt;stroke-linejoin:miter;stroke:#545454;stroke-opacity:1;stroke-miterlimit:4;" d="M 0.00107793 24.998956 L 131.860462 24.998956 " transform="matrix(0.000000001309,0.75,-0.75,0.000000001309,206.249216,276.10466)"/></g></svg>