<svg xmlns="http://www.w3.org/2000/svg" xmlns:xlink="http://www.w3.org/1999/xlink" width="500" zoomAndPan="magnify" viewBox="0 0 375 374.999991" height="500" preserveAspectRatio="xMidYMid meet" version="1.0"><defs><clipPath id="da85a752dd"><path d="M 187.5 0 C 83.945312 0 0 83.945312 0 187.5 C 0 291.054688 83.945312 375 187.5 375 C 291.054688 375 375 291.054688 375 187.5 C 375 83.945312 291.054688 0 187.5 0 Z M 187.5 0 " clip-rule="nonzero"/></clipPath><clipPath id="9dd505fb89"><path d="M 112.128906 169.542969 L 160.398438 169.542969 L 160.398438 334.144531 L 112.128906 334.144531 Z M 112.128906 169.542969 " clip-rule="nonzero"/></clipPath><clipPath id="b20fac759d"><path d="M 136.261719 169.542969 L 160.398438 334.082031 L 112.128906 334.082031 Z M 136.261719 169.542969 " clip-rule="nonzero"/></clipPath><clipPath id="670dee74f3"><path d="M 112.128906 169.554688 L 160.128906 169.554688 L 160.128906 333.792969 L 112.128906 333.792969 Z M 112.128906 169.554688 " clip-rule="nonzero"/></clipPath><clipPath id="88c6302129"><path d="M 136.257812 169.554688 L 160.386719 334.058594 L 112.128906 334.058594 Z M 136.257812 169.554688 " clip-rule="nonzero"/></clipPath><clipPath id="98e29d07b9"><path d="M 217.457031 169.542969 L 267.480469 169.542969 L 267.480469 334.273438 L 217.457031 334.273438 Z M 217.457031 169.542969 " clip-rule="nonzero"/></clipPath><clipPath id="84e9375287"><path d="M 242.46875 169.542969 L 267.480469 334.082031 L 217.457031 334.082031 Z M 242.46875 169.542969 " clip-rule="nonzero"/></clipPath><clipPath id="64879454af"><path d="M 217.457031 169.554688 L 267.699219 169.554688 L 267.699219 333.792969 L 217.457031 333.792969 Z M 217.457031 169.554688 " clip-rule="nonzero"/></clipPath><clipPath id="3950f642e0"><path d="M 242.464844 169.554688 L 267.472656 334.058594 L 217.457031 334.058594 Z M 242.464844 169.554688 " clip-rule="nonzero"/></clipPath><clipPath id="0bda2b57d0"><path d="M 256.636719 92.265625 L 337.5 92.265625 L 337.5 326.964844 L 256.636719 326.964844 Z M 256.636719 92.265625 " clip-rule="nonzero"/></clipPath><clipPath id="458cd181c7"><path d="M 297.066406 326.769531 L 337.5 92.265625 L 256.636719 92.265625 Z M 297.066406 326.769531 " clip-rule="nonzero"/></clipPath><clipPath id="6e0b5aeb4f"><path d="M 152.636719 92.386719 L 233.039062 92.386719 L 233.039062 289.316406 L 152.636719 289.316406 Z M 152.636719 92.386719 " clip-rule="nonzero"/></clipPath><clipPath id="f8f9f59025"><path d="M 192.839844 289.160156 L 233.039062 92.386719 L 152.636719 92.386719 Z M 192.839844 289.160156 " clip-rule="nonzero"/></clipPath><clipPath id="f31497f522"><path d="M 38.320312 92.265625 L 121.164062 92.265625 L 121.164062 326.878906 L 38.320312 326.878906 Z M 38.320312 92.265625 " clip-rule="nonzero"/></clipPath><clipPath id="5842383cd8"><path d="M 79.742188 326.769531 L 121.164062 92.265625 L 38.320312 92.265625 Z M 79.742188 326.769531 " clip-rule="nonzero"/></clipPath><clipPath id="1fe3fc75a8"><path d="M 112.863281 330.15625 L 159.128906 330.15625 L 159.128906 334.21875 L 112.863281 334.21875 Z M 112.863281 330.15625 " clip-rule="nonzero"/></clipPath><clipPath id="bae198440a"><path d="M 125.699219 332.523438 C 122.476562 334.429688 115.574219 334.429688 114 333.851562 C 113.398438 333.683594 113.101562 333.4375 113.023438 333.019531 C 112.875 332.605469 112.875 331.859375 113.25 331.445312 C 113.699219 330.863281 114.75 330.863281 116.398438 330.617188 C 121.875 329.953125 146.550781 330.203125 153.148438 330.285156 C 155.625 330.367188 157.199219 330.117188 158.175781 330.617188 C 158.625 330.863281 158.925781 331.195312 159.074219 331.613281 C 159.148438 332.027344 159 332.691406 158.773438 333.019531 C 158.550781 333.269531 157.949219 333.519531 157.574219 333.519531 C 157.199219 333.4375 156.675781 333.105469 156.523438 332.691406 C 156.375 332.359375 156.375 331.695312 156.523438 331.28125 C 156.675781 330.949219 157.199219 330.535156 157.574219 330.535156 C 158.023438 330.535156 159.074219 331.445312 159.074219 331.941406 C 159.148438 332.441406 158.625 333.105469 157.726562 333.519531 C 153.824219 335.34375 128.398438 332.855469 120.976562 333.1875 C 117.75 333.269531 115.273438 334.429688 114 333.851562 C 113.324219 333.601562 112.875 332.855469 112.875 332.359375 C 112.875 331.859375 113.476562 331.28125 114.074219 330.949219 C 115.273438 330.449219 118.199219 331.527344 120.074219 331.363281 C 121.800781 331.28125 123.824219 330.117188 124.875 330.367188 C 125.398438 330.449219 125.851562 330.78125 125.925781 331.113281 C 126.074219 331.527344 125.699219 332.523438 125.699219 332.523438 " clip-rule="nonzero"/></clipPath><clipPath id="d3fb52a84c"><path d="M 130.597656 326.480469 L 130.882812 326.480469 L 130.882812 326.816406 L 130.597656 326.816406 Z M 130.597656 326.480469 " clip-rule="nonzero"/></clipPath><clipPath id="526755b879"><path d="M 130.800781 326.800781 C 130.351562 326.136719 130.875 326.71875 130.875 326.71875 " clip-rule="nonzero"/></clipPath><clipPath id="b9969f2ed5"><path d="M 158.542969 332.9375 L 158.945312 332.9375 L 158.945312 333.449219 L 158.542969 333.449219 Z M 158.542969 332.9375 " clip-rule="nonzero"/></clipPath><clipPath id="a3350e41bc"><path d="M 158.550781 332.9375 C 159.375 333.105469 158.625 333.4375 158.625 333.4375 " clip-rule="nonzero"/></clipPath><clipPath id="5a3861aa13"><path d="M 158.304688 332.1875 L 158.886719 332.1875 L 158.886719 333.105469 L 158.304688 333.105469 Z M 158.304688 332.1875 " clip-rule="nonzero"/></clipPath><clipPath id="22203d0428"><path d="M 158.625 332.191406 C 159.300781 333.269531 158.398438 333.1875 158.324219 332.9375 C 158.25 332.773438 158.625 332.191406 158.625 332.191406 " clip-rule="nonzero"/></clipPath><clipPath id="68f4f70684"><path d="M 159.25 332.023438 L 159.683594 332.023438 L 159.683594 332.617188 L 159.25 332.617188 Z M 159.25 332.023438 " clip-rule="nonzero"/></clipPath><clipPath id="171f4eceaa"><path d="M 159.675781 332.605469 C 158.773438 332.273438 159.675781 332.027344 159.675781 332.027344 " clip-rule="nonzero"/></clipPath><clipPath id="eeab3066de"><path d="M 158.160156 331.667969 L 160 331.667969 L 160 333.945312 L 158.160156 333.945312 Z M 158.160156 331.667969 " clip-rule="nonzero"/></clipPath><clipPath id="ed68204e1f"><path d="M 158.851562 331.695312 C 159.523438 333.269531 158.851562 333.269531 158.851562 333.351562 C 158.851562 333.519531 159.976562 333.601562 159.976562 333.683594 C 159.976562 333.769531 159.226562 333.933594 159.226562 333.933594 C 159.226562 333.933594 159.898438 333.851562 159.976562 333.601562 C 160.050781 333.4375 159.675781 332.691406 159.449219 332.605469 C 159.300781 332.605469 159.074219 333.4375 158.851562 333.351562 C 158.625 333.351562 158.101562 332.191406 158.175781 331.941406 C 158.25 331.777344 158.851562 331.695312 158.851562 331.695312 " clip-rule="nonzero"/></clipPath><clipPath id="5e068060c0"><path d="M 241.773438 326.234375 L 243.226562 326.234375 L 243.226562 327.570312 L 241.773438 327.570312 Z M 241.773438 326.234375 " clip-rule="nonzero"/></clipPath><clipPath id="80b0e883db"><path d="M 243.226562 326.71875 C 242.550781 327.796875 241.949219 327.628906 241.875 327.382812 C 241.726562 327.132812 241.800781 326.46875 242.023438 326.304688 C 242.25 326.136719 243 326.386719 243 326.386719 " clip-rule="nonzero"/></clipPath><clipPath id="daf0e60827"><path d="M 221.214844 331.414062 L 240.710938 331.414062 L 240.710938 333.777344 L 221.214844 333.777344 Z M 221.214844 331.414062 " clip-rule="nonzero"/></clipPath><clipPath id="0d7e38c441"><path d="M 240.148438 333.769531 C 221.699219 333.769531 221.25 333.769531 221.25 333.683594 C 221.25 333.601562 222.523438 333.683594 222.675781 333.351562 C 222.824219 333.105469 221.851562 332.027344 221.925781 331.859375 C 222.074219 331.613281 223.351562 331.777344 223.5 332.027344 C 223.574219 332.273438 222.898438 333.4375 222.675781 333.351562 C 222.449219 333.351562 221.851562 331.941406 222 331.777344 C 222.148438 331.613281 223.5 331.941406 223.5 332.273438 C 223.574219 332.523438 222.75 333.351562 222.449219 333.351562 C 222.148438 333.351562 221.773438 332.605469 221.773438 332.273438 C 221.851562 331.941406 222.75 331.527344 222.675781 331.445312 C 222.675781 331.363281 221.324219 331.613281 221.398438 331.695312 C 221.398438 332.027344 238.199219 331.03125 240.074219 332.109375 C 240.523438 332.359375 240.675781 332.773438 240.675781 333.019531 C 240.675781 333.269531 240.148438 333.769531 240.148438 333.769531 " clip-rule="nonzero"/></clipPath><clipPath id="55812dc953"><path d="M 262.789062 331.980469 L 265.730469 331.980469 L 265.730469 333.910156 L 262.789062 333.910156 Z M 262.789062 331.980469 " clip-rule="nonzero"/></clipPath><clipPath id="b738dc7ee8"><path d="M 262.949219 332.109375 C 265.800781 332.359375 265.351562 333.519531 265.125 333.519531 C 264.898438 333.601562 264.375 332.855469 264.449219 332.523438 C 264.523438 332.273438 265.425781 331.859375 265.574219 332.027344 C 265.800781 332.109375 265.726562 333.1875 265.425781 333.519531 C 265.050781 333.933594 263.25 334.015625 262.875 333.683594 C 262.648438 333.351562 262.949219 332.109375 262.949219 332.109375 " clip-rule="nonzero"/></clipPath><clipPath id="145322ce0a"><path d="M 258.253906 331.003906 L 263.300781 331.003906 L 263.300781 333.269531 L 258.253906 333.269531 Z M 258.253906 331.003906 " clip-rule="nonzero"/></clipPath><clipPath id="7833ff983d"><path d="M 262.574219 333.269531 C 258.300781 332.9375 258.226562 331.613281 258.375 331.445312 C 258.601562 331.28125 259.800781 332.027344 259.800781 332.273438 C 259.800781 332.523438 258.449219 332.9375 258.375 332.773438 C 258.226562 332.605469 258.675781 331.28125 258.976562 331.195312 C 259.199219 331.195312 259.875 332.191406 259.726562 332.441406 C 259.648438 332.691406 258.375 332.855469 258.300781 332.691406 C 258.148438 332.441406 258.523438 331.445312 258.976562 331.195312 C 259.726562 330.78125 262.351562 331.195312 262.949219 331.695312 C 263.25 331.941406 263.324219 332.523438 263.25 332.773438 C 263.175781 333.019531 262.574219 333.269531 262.574219 333.269531 " clip-rule="nonzero"/></clipPath><clipPath id="0c0c3c31f0"><path d="M 222.722656 328.6875 L 223.066406 328.6875 L 223.066406 329 L 222.722656 329 Z M 222.722656 328.6875 " clip-rule="nonzero"/></clipPath><clipPath id="5710fabd25"><path d="M 223.050781 328.875 C 222.375 329.207031 222.976562 328.707031 222.976562 328.707031 " clip-rule="nonzero"/></clipPath><clipPath id="6e542efe4d"><path d="M 218.332031 332.070312 L 224.078125 332.070312 L 224.078125 334.101562 L 218.332031 334.101562 Z M 218.332031 332.070312 " clip-rule="nonzero"/></clipPath><clipPath id="5392c5964e"><path d="M 221.699219 332.273438 C 222.75 332.855469 222.300781 333.269531 221.925781 333.4375 C 221.25 333.769531 219.226562 333.851562 218.925781 333.4375 C 218.773438 333.269531 218.773438 332.773438 219 332.605469 C 219.300781 332.191406 220.875 332.273438 221.773438 332.359375 C 222.523438 332.441406 223.726562 332.441406 223.949219 332.773438 C 224.101562 333.019531 224.101562 333.4375 223.875 333.601562 C 223.351562 334.183594 218.925781 334.265625 218.476562 333.769531 C 218.25 333.519531 218.324219 333.019531 218.550781 332.855469 C 218.925781 332.359375 221.476562 332.027344 221.925781 332.359375 C 222.148438 332.523438 222.226562 333.105469 222.074219 333.269531 C 221.773438 333.769531 218.851562 334.183594 218.550781 333.769531 C 218.398438 333.601562 218.398438 333.019531 218.625 332.855469 C 219.226562 332.273438 223.199219 332.191406 223.800781 332.773438 C 223.949219 332.9375 224.023438 333.4375 223.875 333.601562 C 223.425781 334.097656 219.148438 334.015625 218.925781 333.4375 C 218.773438 333.269531 219 332.773438 219.300781 332.523438 C 219.824219 332.109375 222 331.941406 222.375 332.273438 C 222.601562 332.523438 222.601562 333.019531 222.449219 333.1875 C 222.300781 333.351562 221.476562 333.1875 221.324219 333.019531 C 221.25 332.855469 221.699219 332.273438 221.699219 332.273438 " clip-rule="nonzero"/></clipPath><clipPath id="efab0e879f"><path d="M 239.179688 331.472656 L 263.878906 331.472656 L 263.878906 334.132812 L 239.179688 334.132812 Z M 239.179688 331.472656 " clip-rule="nonzero"/></clipPath><clipPath id="07e57e08db"><path d="M 241.351562 332.773438 C 263.851562 333.4375 249.300781 333.519531 244.800781 333.351562 C 242.398438 333.269531 239.625 333.4375 239.25 332.855469 C 239.101562 332.605469 239.398438 332.027344 239.398438 332.109375 C 239.398438 332.109375 239.25 332.855469 239.25 332.855469 C 239.25 332.855469 239.175781 332.273438 239.398438 332.027344 C 240.75 330.78125 260.625 331.941406 263.023438 332.605469 C 263.476562 332.691406 263.773438 332.773438 263.851562 333.019531 C 263.851562 333.1875 263.699219 333.4375 263.398438 333.601562 C 262.199219 334.347656 254.625 334.097656 250.875 334.015625 C 247.875 334.015625 244.351562 333.851562 242.699219 333.683594 C 241.875 333.601562 241.273438 333.683594 240.976562 333.4375 C 240.75 333.1875 240.523438 332.523438 240.601562 332.441406 C 240.675781 332.359375 241.351562 332.773438 241.351562 332.773438 " clip-rule="nonzero"/></clipPath><clipPath id="784a51e40e"><path d="M 238.632812 332.175781 L 243.175781 332.175781 L 243.175781 333.351562 L 238.632812 333.351562 Z M 238.632812 332.175781 " clip-rule="nonzero"/></clipPath><clipPath id="8908f78df5"><path d="M 243.148438 332.191406 C 240.523438 333.851562 238.648438 333.269531 238.648438 333.019531 C 238.648438 332.773438 243.148438 332.191406 243.148438 332.191406 " clip-rule="nonzero"/></clipPath><clipPath id="860e37d40d"><path d="M 239.195312 332.28125 L 242.5 332.28125 L 242.5 334.046875 L 239.195312 334.046875 Z M 239.195312 332.28125 " clip-rule="nonzero"/></clipPath><clipPath id="b210b07859"><path d="M 242.476562 333.019531 C 239.324219 333.851562 239.398438 333.105469 239.398438 333.105469 C 239.398438 333.105469 239.550781 334.015625 239.476562 334.015625 C 239.476562 334.015625 239.101562 333.4375 239.25 333.269531 C 239.398438 332.773438 241.648438 332.109375 242.101562 332.359375 C 242.324219 332.441406 242.476562 333.019531 242.476562 333.019531 " clip-rule="nonzero"/></clipPath><clipPath id="701e7d2a10"><path d="M 239.574219 332.347656 L 247.1875 332.347656 L 247.1875 334.390625 L 239.574219 334.390625 Z M 239.574219 332.347656 " clip-rule="nonzero"/></clipPath><clipPath id="0da78a7d03"><path d="M 243.375 333.269531 C 239.699219 333.933594 239.625 333.4375 239.851562 333.1875 C 240.449219 332.441406 246.449219 332.027344 247.050781 332.691406 C 247.273438 332.855469 247.050781 333.601562 247.050781 333.601562 C 247.050781 333.601562 247.050781 332.691406 247.050781 332.691406 C 247.050781 332.691406 247.273438 333.351562 247.125 333.601562 C 246.523438 334.265625 240.601562 334.679688 239.851562 334.097656 C 239.625 333.851562 239.550781 333.4375 239.625 333.269531 C 239.851562 332.855469 241.5 332.691406 242.175781 332.605469 C 242.699219 332.523438 243.375 332.273438 243.523438 332.523438 C 243.601562 332.605469 243.375 333.269531 243.375 333.269531 " clip-rule="nonzero"/></clipPath><clipPath id="6b812da677"><path d="M 264.8125 331.523438 L 266.335938 331.523438 L 266.335938 333.632812 L 264.8125 333.632812 Z M 264.8125 331.523438 " clip-rule="nonzero"/></clipPath><clipPath id="eb24f6a1b6"><path d="M 266.324219 333.105469 C 265.875 334.015625 264.898438 333.519531 264.824219 333.1875 C 264.75 332.773438 265.648438 331.527344 265.648438 331.527344 " clip-rule="nonzero"/></clipPath><clipPath id="4f618c1a71"><path d="M 265.753906 332.925781 L 266.339844 332.925781 L 266.339844 333.488281 L 265.753906 333.488281 Z M 265.753906 332.925781 " clip-rule="nonzero"/></clipPath><clipPath id="f292a39df8"><path d="M 266.324219 333.351562 C 265.425781 333.769531 265.875 332.9375 265.875 332.9375 " clip-rule="nonzero"/></clipPath></defs><g clip-path="url(#da85a752dd)"><path stroke-linecap="butt" transform="matrix(0.75, 0, 0, 0.75, 0.0000045, 0)" fill="none" stroke-linejoin="miter" d="M 250.000026 0 C 111.927092 0 -0.000006 111.927098 -0.000006 250.000032 C -0.000006 388.072967 111.927092 500.000065 250.000026 500.000065 C 388.072961 500.000065 500.000059 388.072967 500.000059 250.000032 C 500.000059 111.927098 388.072961 0 250.000026 0 Z M 250.000026 0 " stroke="#545454" stroke-width="26" stroke-opacity="1" stroke-miterlimit="4"/></g><g clip-path="url(#9dd505fb89)"><g clip-path="url(#b20fac759d)"><path fill="#cb1f27" d="M 112.128906 169.542969 L 160.398438 169.542969 L 160.398438 334.144531 L 112.128906 334.144531 Z M 112.128906 169.542969 " fill-opacity="1" fill-rule="nonzero"/></g></g><g clip-path="url(#670dee74f3)"><g clip-path="url(#88c6302129)"><path stroke-linecap="butt" transform="matrix(0.75, 0, 0, 0.75, 112.128338, 169.555448)" fill="none" stroke-linejoin="miter" d="M 32.172637 -0.00101409 L 64.344516 219.337556 L 0.000757751 219.337556 Z M 32.172637 -0.00101409 " stroke="#000000" stroke-width="2" stroke-opacity="1" stroke-miterlimit="4"/></g></g><g clip-path="url(#98e29d07b9)"><g clip-path="url(#84e9375287)"><path fill="#cb1f27" d="M 217.457031 169.542969 L 267.480469 169.542969 L 267.480469 334.078125 L 217.457031 334.078125 Z M 217.457031 169.542969 " fill-opacity="1" fill-rule="nonzero"/></g></g><g clip-path="url(#64879454af)"><g clip-path="url(#3950f642e0)"><path stroke-linecap="butt" transform="matrix(0.75, 0, 0, 0.75, 217.456543, 169.55366)" fill="none" stroke-linejoin="miter" d="M 33.344403 0.00136991 L 66.688155 219.339926 L 0.000650973 219.339926 Z M 33.344403 0.00136991 " stroke="#000000" stroke-width="2" stroke-opacity="1" stroke-miterlimit="4"/></g></g><g clip-path="url(#0bda2b57d0)"><g clip-path="url(#458cd181c7)"><path fill="#cb1f27" d="M 256.636719 92.265625 L 337.5 92.265625 L 337.5 326.648438 L 256.636719 326.648438 Z M 256.636719 92.265625 " fill-opacity="1" fill-rule="nonzero"/></g></g><g clip-path="url(#6e0b5aeb4f)"><g clip-path="url(#f8f9f59025)"><path fill="#cb1f27" d="M 152.636719 92.386719 L 233.039062 92.386719 L 233.039062 289.316406 L 152.636719 289.316406 Z M 152.636719 92.386719 " fill-opacity="1" fill-rule="nonzero"/></g></g><g clip-path="url(#f31497f522)"><g clip-path="url(#5842383cd8)"><path fill="#cb1f27" d="M 38.320312 92.265625 L 121.164062 92.265625 L 121.164062 326.878906 L 38.320312 326.878906 Z M 38.320312 92.265625 " fill-opacity="1" fill-rule="nonzero"/></g></g><path stroke-linecap="butt" transform="matrix(-0.130456, 0.738567, -0.738567, -0.130456, 121.508874, 92.440643)" fill="none" stroke-linejoin="miter" d="M -0.000784367 0.498738 L 317.368368 0.498199 " stroke="#000000" stroke-width="1" stroke-opacity="1" stroke-miterlimit="4"/><path stroke-linecap="butt" transform="matrix(0.12278, 0.739882, -0.739882, 0.12278, 257.98487, 92.209492)" fill="none" stroke-linejoin="miter" d="M -0.00213592 0.501873 L 316.946361 0.497862 " stroke="#000000" stroke-width="1" stroke-opacity="1" stroke-miterlimit="4"/><path stroke-linecap="butt" transform="matrix(0.150129, -0.73482, 0.73482, 0.150129, 192.470032, 289.084639)" fill="none" stroke-linejoin="miter" d="M -0.000992152 0.498155 L 267.783596 0.49919 " stroke="#000000" stroke-width="1" stroke-opacity="1" stroke-miterlimit="4"/><path stroke-linecap="butt" transform="matrix(-0.150129, -0.73482, 0.73482, -0.150129, 192.469708, 289.234757)" fill="none" stroke-linejoin="miter" d="M -0.000291027 0.498334 L 267.783255 0.502397 " stroke="#000000" stroke-width="1" stroke-opacity="1" stroke-miterlimit="4"/><g clip-path="url(#1fe3fc75a8)"><g clip-path="url(#bae198440a)"><path fill="#cb1f27" d="M 109.875 326.96875 L 162.15625 326.96875 L 162.15625 337.167969 L 109.875 337.167969 Z M 109.875 326.96875 " fill-opacity="1" fill-rule="nonzero"/></g></g><g clip-path="url(#d3fb52a84c)"><g clip-path="url(#526755b879)"><path fill="#cb1f27" d="M 127.351562 322.820312 L 133.949219 322.820312 L 133.949219 330.117188 L 127.351562 330.117188 Z M 127.351562 322.820312 " fill-opacity="1" fill-rule="nonzero"/></g></g><g clip-path="url(#b9969f2ed5)"><g clip-path="url(#a3350e41bc)"><path fill="#cb1f27" d="M 155.550781 329.621094 L 162.449219 329.621094 L 162.449219 336.761719 L 155.550781 336.761719 Z M 155.550781 329.621094 " fill-opacity="1" fill-rule="nonzero"/></g></g><g clip-path="url(#5a3861aa13)"><g clip-path="url(#22203d0428)"><path fill="#cb1f27" d="M 155.324219 328.875 L 162.449219 328.875 L 162.449219 336.585938 L 155.324219 336.585938 Z M 155.324219 328.875 " fill-opacity="1" fill-rule="nonzero"/></g></g><g clip-path="url(#68f4f70684)"><g clip-path="url(#171f4eceaa)"><path fill="#cb1f27" d="M 155.773438 328.707031 L 162.675781 328.707031 L 162.675781 335.933594 L 155.773438 335.933594 Z M 155.773438 328.707031 " fill-opacity="1" fill-rule="nonzero"/></g></g><g clip-path="url(#eeab3066de)"><g clip-path="url(#ed68204e1f)"><path fill="#cb1f27" d="M 155.175781 328.375 L 163.050781 328.375 L 163.050781 337.328125 L 155.175781 337.328125 Z M 155.175781 328.375 " fill-opacity="1" fill-rule="nonzero"/></g></g><g clip-path="url(#5e068060c0)"><g clip-path="url(#80b0e883db)"><path fill="#cb1f27" d="M 238.875 322.984375 L 246.300781 322.984375 L 246.300781 331.019531 L 238.875 331.019531 Z M 238.875 322.984375 " fill-opacity="1" fill-rule="nonzero"/></g></g><g clip-path="url(#daf0e60827)"><g clip-path="url(#0d7e38c441)"><path fill="#cb1f27" d="M 218.25 328.128906 L 243.675781 328.128906 L 243.675781 337.167969 L 218.25 337.167969 Z M 218.25 328.128906 " fill-opacity="1" fill-rule="nonzero"/></g></g><g clip-path="url(#55812dc953)"><g clip-path="url(#b738dc7ee8)"><path fill="#cb1f27" d="M 259.875 328.707031 L 268.644531 328.707031 L 268.644531 337.085938 L 259.875 337.085938 Z M 259.875 328.707031 " fill-opacity="1" fill-rule="nonzero"/></g></g><g clip-path="url(#145322ce0a)"><g clip-path="url(#7833ff983d)"><path fill="#cb1f27" d="M 255.300781 327.878906 L 266.324219 327.878906 L 266.324219 336.671875 L 255.300781 336.671875 Z M 255.300781 327.878906 " fill-opacity="1" fill-rule="nonzero"/></g></g><g clip-path="url(#0c0c3c31f0)"><g clip-path="url(#5710fabd25)"><path fill="#cb1f27" d="M 219.375 325.390625 L 226.125 325.390625 L 226.125 332.617188 L 219.375 332.617188 Z M 219.375 325.390625 " fill-opacity="1" fill-rule="nonzero"/></g></g><g clip-path="url(#6e542efe4d)"><g clip-path="url(#5392c5964e)"><path fill="#cb1f27" d="M 215.476562 328.957031 L 227.03125 328.957031 L 227.03125 337.085938 L 215.476562 337.085938 Z M 215.476562 328.957031 " fill-opacity="1" fill-rule="nonzero"/></g></g><g clip-path="url(#efab0e879f)"><g clip-path="url(#07e57e08db)"><path fill="#cb1f27" d="M 236.25 328.707031 L 266.84375 328.707031 L 266.84375 337.335938 L 236.25 337.335938 Z M 236.25 328.707031 " fill-opacity="1" fill-rule="nonzero"/></g></g><g clip-path="url(#784a51e40e)"><g clip-path="url(#8908f78df5)"><path fill="#cb1f27" d="M 235.648438 328.875 L 246.222656 328.875 L 246.222656 337.003906 L 235.648438 337.003906 Z M 235.648438 328.875 " fill-opacity="1" fill-rule="nonzero"/></g></g><g clip-path="url(#860e37d40d)"><g clip-path="url(#b210b07859)"><path fill="#cb1f27" d="M 236.25 329.039062 L 245.542969 329.039062 L 245.542969 337.417969 L 236.25 337.417969 Z M 236.25 329.039062 " fill-opacity="1" fill-rule="nonzero"/></g></g><g clip-path="url(#701e7d2a10)"><g clip-path="url(#0da78a7d03)"><path fill="#cb1f27" d="M 236.625 329.207031 L 250.132812 329.207031 L 250.132812 337.5 L 236.625 337.5 Z M 236.625 329.207031 " fill-opacity="1" fill-rule="nonzero"/></g></g><g clip-path="url(#6b812da677)"><g clip-path="url(#eb24f6a1b6)"><path fill="#cb1f27" d="M 261.824219 328.210938 L 269.324219 328.210938 L 269.324219 337.265625 L 261.824219 337.265625 Z M 261.824219 328.210938 " fill-opacity="1" fill-rule="nonzero"/></g></g><g clip-path="url(#4f618c1a71)"><g clip-path="url(#f292a39df8)"><path fill="#cb1f27" d="M 262.5 329.621094 L 269.324219 329.621094 L 269.324219 337.246094 L 262.5 337.246094 Z M 262.5 329.621094 " fill-opacity="1" fill-rule="nonzero"/></g></g></svg>